<svg width="1000" height="1000" xmlns="http://www.w3.org/2000/svg" version="1.1">


<!-- internal style sheet -->
<style type="text/css"><![CDATA[
 rect.background{fill:white}
 rect{fill:none; stroke:rgb(25,25,25); stroke-width:2}
 text{font-family:Helvetica; text-anchor:middle; fill:rgb(25,25,25)}
 line{stroke:rgb(25,25,25); stroke-width:4}
 path{fill:none; stroke:rgb(25,25,25); stroke-width:2}
 circle{fill:white; stroke:black; stroke-width:2}

 path.p0{fill:rgb(0,102,255); stroke:rgb(25,25,25); stroke-width:2}
 path.ps0{fill:rgb(0,77,191); stroke:rgb(20,20,20); stroke-width:2}
 rect.r0{fill:rgb(0,102,255); stroke:rgb(25,25,25); stroke-width:2}
 path.p1{fill:rgb(0,255,224); stroke:rgb(25,25,25); stroke-width:2}
 path.ps1{fill:rgb(0,191,168); stroke:rgb(20,20,20); stroke-width:2}
 rect.r1{fill:rgb(0,255,224); stroke:rgb(25,25,25); stroke-width:2}
 path.p2{fill:rgb(0,255,41); stroke:rgb(25,25,25); stroke-width:2}
 path.ps2{fill:rgb(0,191,31); stroke:rgb(20,20,20); stroke-width:2}
 rect.r2{fill:rgb(0,255,41); stroke:rgb(25,25,25); stroke-width:2}
 path.p3{fill:rgb(143,255,0); stroke:rgb(25,25,25); stroke-width:2}
 path.ps3{fill:rgb(107,191,0); stroke:rgb(20,20,20); stroke-width:2}
 rect.r3{fill:rgb(143,255,0); stroke:rgb(25,25,25); stroke-width:2}
 path.p4{fill:rgb(255,184,0); stroke:rgb(25,25,25); stroke-width:2}
 path.ps4{fill:rgb(191,138,0); stroke:rgb(20,20,20); stroke-width:2}
 rect.r4{fill:rgb(255,184,0); stroke:rgb(25,25,25); stroke-width:2}
 path.p5{fill:rgb(255,0,0); stroke:rgb(25,25,25); stroke-width:2}
 path.ps5{fill:rgb(191,0,0); stroke:rgb(20,20,20); stroke-width:2}
 rect.r5{fill:rgb(255,0,0); stroke:rgb(25,25,25); stroke-width:2}
]]></style>

 <rect class="background" width="1000" height="1000"/>
  <!-- cells -->
  <path class="p5" d="M 80 920 L 106 920 L 106 894 L 80 894 L 80 920"/>
  <line x1="80" y1="920" x2="80" y2="894"/>
  <line x1="80" y1="920" x2="106" y2="920"/>
  <path class="p5" d="M 106 920 L 133 920 L 133 894 L 106 894 L 106 920"/>
  <line x1="106" y1="920" x2="133" y2="920"/>
  <path class="p5" d="M 80 894 L 106 894 L 106 868 L 80 868 L 80 894"/>
  <line x1="80" y1="894" x2="80" y2="868"/>
  <path class="p5" d="M 106 894 L 133 894 L 133 868 L 106 868 L 106 894"/>
  <path class="p5" d="M 133 920 L 159 920 L 159 894 L 133 894 L 133 920"/>
  <line x1="133" y1="920" x2="159" y2="920"/>
  <path class="p5" d="M 159 920 L 185 920 L 185 894 L 159 894 L 159 920"/>
  <line x1="159" y1="920" x2="185" y2="920"/>
  <path class="p5" d="M 133 894 L 159 894 L 159 868 L 133 868 L 133 894"/>
  <path class="p5" d="M 159 894 L 185 894 L 185 868 L 159 868 L 159 894"/>
  <path class="p5" d="M 80 868 L 106 868 L 106 841 L 80 841 L 80 868"/>
  <line x1="80" y1="868" x2="80" y2="841"/>
  <path class="p5" d="M 106 868 L 133 868 L 133 841 L 106 841 L 106 868"/>
  <path class="p5" d="M 80 841 L 106 841 L 106 815 L 80 815 L 80 841"/>
  <line x1="80" y1="841" x2="80" y2="815"/>
  <path class="p5" d="M 106 841 L 133 841 L 133 815 L 106 815 L 106 841"/>
  <path class="p5" d="M 133 868 L 159 868 L 159 841 L 133 841 L 133 868"/>
  <path class="p5" d="M 159 868 L 185 868 L 185 841 L 159 841 L 159 868"/>
  <path class="p5" d="M 133 841 L 159 841 L 159 815 L 133 815 L 133 841"/>
  <path class="p5" d="M 159 841 L 185 841 L 185 815 L 159 815 L 159 841"/>
  <path class="p5" d="M 185 920 L 211 920 L 211 894 L 185 894 L 185 920"/>
  <line x1="185" y1="920" x2="211" y2="920"/>
  <path class="p5" d="M 211 920 L 238 920 L 238 894 L 211 894 L 211 920"/>
  <line x1="211" y1="920" x2="238" y2="920"/>
  <path class="p5" d="M 185 894 L 211 894 L 211 868 L 185 868 L 185 894"/>
  <path class="p5" d="M 211 894 L 238 894 L 238 868 L 211 868 L 211 894"/>
  <path class="p5" d="M 238 920 L 264 920 L 264 894 L 238 894 L 238 920"/>
  <line x1="238" y1="920" x2="264" y2="920"/>
  <path class="p5" d="M 264 920 L 290 920 L 290 894 L 264 894 L 264 920"/>
  <line x1="264" y1="920" x2="290" y2="920"/>
  <path class="p5" d="M 238 894 L 264 894 L 264 868 L 238 868 L 238 894"/>
  <path class="p5" d="M 264 894 L 290 894 L 290 868 L 264 868 L 264 894"/>
  <path class="p5" d="M 185 868 L 211 868 L 211 841 L 185 841 L 185 868"/>
  <path class="p5" d="M 211 868 L 238 868 L 238 841 L 211 841 L 211 868"/>
  <path class="p5" d="M 185 841 L 211 841 L 211 815 L 185 815 L 185 841"/>
  <path class="p5" d="M 211 841 L 238 841 L 238 815 L 211 815 L 211 841"/>
  <path class="p5" d="M 238 868 L 264 868 L 264 841 L 238 841 L 238 868"/>
  <path class="p5" d="M 264 868 L 290 868 L 290 841 L 264 841 L 264 868"/>
  <path class="p5" d="M 238 841 L 264 841 L 264 815 L 238 815 L 238 841"/>
  <path class="p5" d="M 264 841 L 290 841 L 290 815 L 264 815 L 264 841"/>
  <path class="p5" d="M 80 815 L 106 815 L 106 789 L 80 789 L 80 815"/>
  <line x1="80" y1="815" x2="80" y2="789"/>
  <path class="p5" d="M 106 815 L 133 815 L 133 789 L 106 789 L 106 815"/>
  <path class="p5" d="M 80 789 L 106 789 L 106 763 L 80 763 L 80 789"/>
  <line x1="80" y1="789" x2="80" y2="763"/>
  <path class="p5" d="M 106 789 L 133 789 L 133 763 L 106 763 L 106 789"/>
  <path class="p5" d="M 133 815 L 159 815 L 159 789 L 133 789 L 133 815"/>
  <path class="p5" d="M 159 815 L 185 815 L 185 789 L 159 789 L 159 815"/>
  <path class="p5" d="M 133 789 L 159 789 L 159 763 L 133 763 L 133 789"/>
  <path class="p5" d="M 159 789 L 185 789 L 185 763 L 159 763 L 159 789"/>
  <path class="p5" d="M 80 763 L 106 763 L 106 736 L 80 736 L 80 763"/>
  <line x1="80" y1="763" x2="80" y2="736"/>
  <path class="p5" d="M 106 763 L 133 763 L 133 736 L 106 736 L 106 763"/>
  <path class="p5" d="M 80 736 L 106 736 L 106 710 L 80 710 L 80 736"/>
  <line x1="80" y1="736" x2="80" y2="710"/>
  <path class="p5" d="M 106 736 L 133 736 L 133 710 L 106 710 L 106 736"/>
  <path class="p5" d="M 133 763 L 159 763 L 159 736 L 133 736 L 133 763"/>
  <path class="p5" d="M 159 763 L 185 763 L 185 736 L 159 736 L 159 763"/>
  <path class="p5" d="M 133 736 L 159 736 L 159 710 L 133 710 L 133 736"/>
  <path class="p5" d="M 159 736 L 185 736 L 185 710 L 159 710 L 159 736"/>
  <path class="p5" d="M 185 815 L 211 815 L 211 789 L 185 789 L 185 815"/>
  <path class="p5" d="M 211 815 L 238 815 L 238 789 L 211 789 L 211 815"/>
  <path class="p5" d="M 185 789 L 211 789 L 211 763 L 185 763 L 185 789"/>
  <path class="p5" d="M 211 789 L 238 789 L 238 763 L 211 763 L 211 789"/>
  <path class="p5" d="M 238 815 L 264 815 L 264 789 L 238 789 L 238 815"/>
  <path class="p5" d="M 264 815 L 290 815 L 290 789 L 264 789 L 264 815"/>
  <path class="p5" d="M 238 789 L 264 789 L 264 763 L 238 763 L 238 789"/>
  <path class="p5" d="M 264 789 L 290 789 L 290 763 L 264 763 L 264 789"/>
  <path class="p5" d="M 185 763 L 211 763 L 211 736 L 185 736 L 185 763"/>
  <path class="p5" d="M 211 763 L 238 763 L 238 736 L 211 736 L 211 763"/>
  <path class="p5" d="M 185 736 L 211 736 L 211 710 L 185 710 L 185 736"/>
  <path class="p5" d="M 211 736 L 238 736 L 238 710 L 211 710 L 211 736"/>
  <path class="p5" d="M 238 763 L 264 763 L 264 736 L 238 736 L 238 763"/>
  <path class="p5" d="M 264 763 L 290 763 L 290 736 L 264 736 L 264 763"/>
  <path class="p5" d="M 238 736 L 264 736 L 264 710 L 238 710 L 238 736"/>
  <path class="p5" d="M 264 736 L 290 736 L 290 710 L 264 710 L 264 736"/>
  <path class="p5" d="M 290 920 L 316 920 L 316 894 L 290 894 L 290 920"/>
  <line x1="290" y1="920" x2="316" y2="920"/>
  <path class="p5" d="M 316 920 L 343 920 L 343 894 L 316 894 L 316 920"/>
  <line x1="316" y1="920" x2="343" y2="920"/>
  <path class="p5" d="M 290 894 L 316 894 L 316 868 L 290 868 L 290 894"/>
  <path class="p5" d="M 316 894 L 343 894 L 343 868 L 316 868 L 316 894"/>
  <path class="p5" d="M 343 920 L 369 920 L 369 894 L 343 894 L 343 920"/>
  <line x1="343" y1="920" x2="369" y2="920"/>
  <path class="p5" d="M 369 920 L 395 920 L 395 894 L 369 894 L 369 920"/>
  <line x1="369" y1="920" x2="395" y2="920"/>
  <path class="p5" d="M 343 894 L 369 894 L 369 868 L 343 868 L 343 894"/>
  <path class="p5" d="M 369 894 L 395 894 L 395 868 L 369 868 L 369 894"/>
  <path class="p5" d="M 290 868 L 316 868 L 316 841 L 290 841 L 290 868"/>
  <path class="p5" d="M 316 868 L 343 868 L 343 841 L 316 841 L 316 868"/>
  <path class="p5" d="M 290 841 L 316 841 L 316 815 L 290 815 L 290 841"/>
  <path class="p5" d="M 316 841 L 343 841 L 343 815 L 316 815 L 316 841"/>
  <path class="p5" d="M 343 868 L 369 868 L 369 841 L 343 841 L 343 868"/>
  <path class="p5" d="M 369 868 L 395 868 L 395 841 L 369 841 L 369 868"/>
  <path class="p5" d="M 343 841 L 369 841 L 369 815 L 343 815 L 343 841"/>
  <path class="p5" d="M 369 841 L 395 841 L 395 815 L 369 815 L 369 841"/>
  <path class="p5" d="M 395 920 L 421 920 L 421 894 L 395 894 L 395 920"/>
  <line x1="395" y1="920" x2="421" y2="920"/>
  <path class="p5" d="M 421 920 L 448 920 L 448 894 L 421 894 L 421 920"/>
  <line x1="421" y1="920" x2="448" y2="920"/>
  <path class="p5" d="M 395 894 L 421 894 L 421 868 L 395 868 L 395 894"/>
  <path class="p5" d="M 421 894 L 448 894 L 448 868 L 421 868 L 421 894"/>
  <path class="p5" d="M 448 920 L 474 920 L 474 894 L 448 894 L 448 920"/>
  <line x1="448" y1="920" x2="474" y2="920"/>
  <path class="p5" d="M 474 920 L 500 920 L 500 894 L 474 894 L 474 920"/>
  <line x1="474" y1="920" x2="500" y2="920"/>
  <path class="p5" d="M 448 894 L 474 894 L 474 868 L 448 868 L 448 894"/>
  <path class="p5" d="M 474 894 L 500 894 L 500 868 L 474 868 L 474 894"/>
  <path class="p5" d="M 395 868 L 421 868 L 421 841 L 395 841 L 395 868"/>
  <path class="p5" d="M 421 868 L 448 868 L 448 841 L 421 841 L 421 868"/>
  <path class="p5" d="M 395 841 L 421 841 L 421 815 L 395 815 L 395 841"/>
  <path class="p5" d="M 421 841 L 448 841 L 448 815 L 421 815 L 421 841"/>
  <path class="p5" d="M 448 868 L 474 868 L 474 841 L 448 841 L 448 868"/>
  <path class="p5" d="M 474 868 L 500 868 L 500 841 L 474 841 L 474 868"/>
  <path class="p5" d="M 448 841 L 474 841 L 474 815 L 448 815 L 448 841"/>
  <path class="p5" d="M 474 841 L 500 841 L 500 815 L 474 815 L 474 841"/>
  <path class="p5" d="M 290 815 L 316 815 L 316 789 L 290 789 L 290 815"/>
  <path class="p5" d="M 316 815 L 343 815 L 343 789 L 316 789 L 316 815"/>
  <path class="p5" d="M 290 789 L 316 789 L 316 763 L 290 763 L 290 789"/>
  <path class="p5" d="M 316 789 L 343 789 L 343 763 L 316 763 L 316 789"/>
  <path class="p5" d="M 343 815 L 369 815 L 369 789 L 343 789 L 343 815"/>
  <path class="p5" d="M 369 815 L 395 815 L 395 789 L 369 789 L 369 815"/>
  <path class="p5" d="M 343 789 L 369 789 L 369 763 L 343 763 L 343 789"/>
  <path class="p5" d="M 369 789 L 395 789 L 395 763 L 369 763 L 369 789"/>
  <path class="p5" d="M 290 763 L 316 763 L 316 736 L 290 736 L 290 763"/>
  <path class="p5" d="M 316 763 L 343 763 L 343 736 L 316 736 L 316 763"/>
  <path class="p5" d="M 290 736 L 316 736 L 316 710 L 290 710 L 290 736"/>
  <path class="p5" d="M 316 736 L 343 736 L 343 710 L 316 710 L 316 736"/>
  <path class="p5" d="M 343 763 L 369 763 L 369 736 L 343 736 L 343 763"/>
  <path class="p5" d="M 369 763 L 395 763 L 395 736 L 369 736 L 369 763"/>
  <path class="p5" d="M 343 736 L 369 736 L 369 710 L 343 710 L 343 736"/>
  <path class="p5" d="M 369 736 L 395 736 L 395 710 L 369 710 L 369 736"/>
  <path class="p5" d="M 395 815 L 421 815 L 421 789 L 395 789 L 395 815"/>
  <path class="p5" d="M 421 815 L 448 815 L 448 789 L 421 789 L 421 815"/>
  <path class="p5" d="M 395 789 L 421 789 L 421 763 L 395 763 L 395 789"/>
  <path class="p5" d="M 421 789 L 448 789 L 448 763 L 421 763 L 421 789"/>
  <path class="p5" d="M 448 815 L 474 815 L 474 789 L 448 789 L 448 815"/>
  <path class="p5" d="M 474 815 L 500 815 L 500 789 L 474 789 L 474 815"/>
  <path class="p5" d="M 448 789 L 474 789 L 474 763 L 448 763 L 448 789"/>
  <path class="p5" d="M 474 789 L 500 789 L 500 763 L 474 763 L 474 789"/>
  <path class="p5" d="M 395 763 L 421 763 L 421 736 L 395 736 L 395 763"/>
  <path class="p5" d="M 421 763 L 448 763 L 448 736 L 421 736 L 421 763"/>
  <path class="p5" d="M 395 736 L 421 736 L 421 710 L 395 710 L 395 736"/>
  <path class="p5" d="M 421 736 L 448 736 L 448 710 L 421 710 L 421 736"/>
  <path class="p5" d="M 448 763 L 474 763 L 474 736 L 448 736 L 448 763"/>
  <path class="p5" d="M 474 763 L 500 763 L 500 736 L 474 736 L 474 763"/>
  <path class="p5" d="M 448 736 L 474 736 L 474 710 L 448 710 L 448 736"/>
  <path class="p5" d="M 474 736 L 500 736 L 500 710 L 474 710 L 474 736"/>
  <path class="p5" d="M 80 710 L 106 710 L 106 684 L 80 684 L 80 710"/>
  <line x1="80" y1="710" x2="80" y2="684"/>
  <path class="p5" d="M 106 710 L 133 710 L 133 684 L 106 684 L 106 710"/>
  <path class="p5" d="M 80 684 L 106 684 L 106 658 L 80 658 L 80 684"/>
  <line x1="80" y1="684" x2="80" y2="658"/>
  <path class="p5" d="M 106 684 L 133 684 L 133 658 L 106 658 L 106 684"/>
  <path class="p5" d="M 133 710 L 159 710 L 159 684 L 133 684 L 133 710"/>
  <path class="p5" d="M 159 710 L 185 710 L 185 684 L 159 684 L 159 710"/>
  <path class="p5" d="M 133 684 L 159 684 L 159 658 L 133 658 L 133 684"/>
  <path class="p5" d="M 159 684 L 185 684 L 185 658 L 159 658 L 159 684"/>
  <path class="p5" d="M 80 658 L 106 658 L 106 631 L 80 631 L 80 658"/>
  <line x1="80" y1="658" x2="80" y2="631"/>
  <path class="p5" d="M 106 658 L 133 658 L 133 631 L 106 631 L 106 658"/>
  <path class="p5" d="M 80 631 L 106 631 L 106 605 L 80 605 L 80 631"/>
  <line x1="80" y1="631" x2="80" y2="605"/>
  <path class="p5" d="M 106 631 L 133 631 L 133 605 L 106 605 L 106 631"/>
  <path class="p5" d="M 133 658 L 159 658 L 159 631 L 133 631 L 133 658"/>
  <path class="p5" d="M 159 658 L 185 658 L 185 631 L 159 631 L 159 658"/>
  <path class="p5" d="M 133 631 L 159 631 L 159 605 L 133 605 L 133 631"/>
  <path class="p5" d="M 159 631 L 185 631 L 185 605 L 159 605 L 159 631"/>
  <path class="p5" d="M 185 710 L 211 710 L 211 684 L 185 684 L 185 710"/>
  <path class="p5" d="M 211 710 L 238 710 L 238 684 L 211 684 L 211 710"/>
  <path class="p5" d="M 185 684 L 211 684 L 211 658 L 185 658 L 185 684"/>
  <path class="p5" d="M 211 684 L 238 684 L 238 658 L 211 658 L 211 684"/>
  <path class="p5" d="M 238 710 L 264 710 L 264 684 L 238 684 L 238 710"/>
  <path class="p5" d="M 264 710 L 290 710 L 290 684 L 264 684 L 264 710"/>
  <path class="p5" d="M 238 684 L 264 684 L 264 658 L 238 658 L 238 684"/>
  <path class="p5" d="M 264 684 L 290 684 L 290 658 L 264 658 L 264 684"/>
  <path class="p5" d="M 185 658 L 211 658 L 211 631 L 185 631 L 185 658"/>
  <path class="p5" d="M 211 658 L 238 658 L 238 631 L 211 631 L 211 658"/>
  <path class="p5" d="M 185 631 L 211 631 L 211 605 L 185 605 L 185 631"/>
  <path class="p5" d="M 211 631 L 238 631 L 238 605 L 211 605 L 211 631"/>
  <path class="p5" d="M 238 658 L 264 658 L 264 631 L 238 631 L 238 658"/>
  <path class="p5" d="M 264 658 L 290 658 L 290 631 L 264 631 L 264 658"/>
  <path class="p5" d="M 238 631 L 264 631 L 264 605 L 238 605 L 238 631"/>
  <path class="p5" d="M 264 631 L 290 631 L 290 605 L 264 605 L 264 631"/>
  <path class="p5" d="M 80 605 L 106 605 L 106 579 L 80 579 L 80 605"/>
  <line x1="80" y1="605" x2="80" y2="579"/>
  <path class="p5" d="M 106 605 L 133 605 L 133 579 L 106 579 L 106 605"/>
  <path class="p5" d="M 80 579 L 106 579 L 106 553 L 80 553 L 80 579"/>
  <line x1="80" y1="579" x2="80" y2="553"/>
  <path class="p5" d="M 106 579 L 133 579 L 133 553 L 106 553 L 106 579"/>
  <path class="p5" d="M 133 605 L 159 605 L 159 579 L 133 579 L 133 605"/>
  <path class="p5" d="M 159 605 L 185 605 L 185 579 L 159 579 L 159 605"/>
  <path class="p5" d="M 133 579 L 159 579 L 159 553 L 133 553 L 133 579"/>
  <path class="p5" d="M 159 579 L 185 579 L 185 553 L 159 553 L 159 579"/>
  <path class="p5" d="M 80 553 L 106 553 L 106 526 L 80 526 L 80 553"/>
  <line x1="80" y1="553" x2="80" y2="526"/>
  <path class="p5" d="M 106 553 L 133 553 L 133 526 L 106 526 L 106 553"/>
  <path class="p5" d="M 80 526 L 106 526 L 106 500 L 80 500 L 80 526"/>
  <line x1="80" y1="526" x2="80" y2="500"/>
  <path class="p5" d="M 106 526 L 133 526 L 133 500 L 106 500 L 106 526"/>
  <path class="p5" d="M 133 553 L 159 553 L 159 526 L 133 526 L 133 553"/>
  <path class="p5" d="M 159 553 L 185 553 L 185 526 L 159 526 L 159 553"/>
  <path class="p5" d="M 133 526 L 159 526 L 159 500 L 133 500 L 133 526"/>
  <path class="p5" d="M 159 526 L 185 526 L 185 500 L 159 500 L 159 526"/>
  <path class="p5" d="M 185 605 L 211 605 L 211 579 L 185 579 L 185 605"/>
  <path class="p5" d="M 211 605 L 238 605 L 238 579 L 211 579 L 211 605"/>
  <path class="p5" d="M 185 579 L 211 579 L 211 553 L 185 553 L 185 579"/>
  <path class="p5" d="M 211 579 L 238 579 L 238 553 L 211 553 L 211 579"/>
  <path class="p5" d="M 238 605 L 264 605 L 264 579 L 238 579 L 238 605"/>
  <path class="p5" d="M 264 605 L 290 605 L 290 579 L 264 579 L 264 605"/>
  <path class="p5" d="M 238 579 L 264 579 L 264 553 L 238 553 L 238 579"/>
  <path class="p5" d="M 264 579 L 290 579 L 290 553 L 264 553 L 264 579"/>
  <path class="p5" d="M 185 553 L 211 553 L 211 526 L 185 526 L 185 553"/>
  <path class="p5" d="M 211 553 L 238 553 L 238 526 L 211 526 L 211 553"/>
  <path class="p5" d="M 185 526 L 211 526 L 211 500 L 185 500 L 185 526"/>
  <path class="p5" d="M 211 526 L 238 526 L 238 500 L 211 500 L 211 526"/>
  <path class="p5" d="M 238 553 L 264 553 L 264 526 L 238 526 L 238 553"/>
  <path class="p5" d="M 264 553 L 290 553 L 290 526 L 264 526 L 264 553"/>
  <path class="p5" d="M 238 526 L 264 526 L 264 500 L 238 500 L 238 526"/>
  <path class="p5" d="M 264 526 L 290 526 L 290 500 L 264 500 L 264 526"/>
  <path class="p5" d="M 290 710 L 316 710 L 316 684 L 290 684 L 290 710"/>
  <path class="p5" d="M 316 710 L 343 710 L 343 684 L 316 684 L 316 710"/>
  <path class="p5" d="M 290 684 L 316 684 L 316 658 L 290 658 L 290 684"/>
  <path class="p5" d="M 316 684 L 343 684 L 343 658 L 316 658 L 316 684"/>
  <path class="p5" d="M 343 710 L 369 710 L 369 684 L 343 684 L 343 710"/>
  <path class="p5" d="M 369 710 L 395 710 L 395 684 L 369 684 L 369 710"/>
  <path class="p5" d="M 343 684 L 369 684 L 369 658 L 343 658 L 343 684"/>
  <path class="p5" d="M 369 684 L 395 684 L 395 658 L 369 658 L 369 684"/>
  <path class="p5" d="M 290 658 L 316 658 L 316 631 L 290 631 L 290 658"/>
  <path class="p5" d="M 316 658 L 343 658 L 343 631 L 316 631 L 316 658"/>
  <path class="p5" d="M 290 631 L 316 631 L 316 605 L 290 605 L 290 631"/>
  <path class="p5" d="M 316 631 L 343 631 L 343 605 L 316 605 L 316 631"/>
  <path class="p5" d="M 343 658 L 369 658 L 369 631 L 343 631 L 343 658"/>
  <path class="p5" d="M 369 658 L 395 658 L 395 631 L 369 631 L 369 658"/>
  <path class="p5" d="M 343 631 L 369 631 L 369 605 L 343 605 L 343 631"/>
  <path class="p5" d="M 369 631 L 395 631 L 395 605 L 369 605 L 369 631"/>
  <path class="p5" d="M 395 710 L 421 710 L 421 684 L 395 684 L 395 710"/>
  <path class="p5" d="M 421 710 L 448 710 L 448 684 L 421 684 L 421 710"/>
  <path class="p5" d="M 395 684 L 421 684 L 421 658 L 395 658 L 395 684"/>
  <path class="p5" d="M 421 684 L 448 684 L 448 658 L 421 658 L 421 684"/>
  <path class="p5" d="M 448 710 L 474 710 L 474 684 L 448 684 L 448 710"/>
  <path class="p5" d="M 474 710 L 500 710 L 500 684 L 474 684 L 474 710"/>
  <path class="p5" d="M 448 684 L 474 684 L 474 658 L 448 658 L 448 684"/>
  <path class="p5" d="M 474 684 L 500 684 L 500 658 L 474 658 L 474 684"/>
  <path class="p5" d="M 395 658 L 421 658 L 421 631 L 395 631 L 395 658"/>
  <path class="p5" d="M 421 658 L 448 658 L 448 631 L 421 631 L 421 658"/>
  <path class="p5" d="M 395 631 L 421 631 L 421 605 L 395 605 L 395 631"/>
  <path class="p5" d="M 421 631 L 448 631 L 448 605 L 421 605 L 421 631"/>
  <path class="p5" d="M 448 658 L 474 658 L 474 631 L 448 631 L 448 658"/>
  <path class="p5" d="M 474 658 L 500 658 L 500 631 L 474 631 L 474 658"/>
  <path class="p5" d="M 448 631 L 474 631 L 474 605 L 448 605 L 448 631"/>
  <path class="p5" d="M 474 631 L 500 631 L 500 605 L 474 605 L 474 631"/>
  <path class="p5" d="M 290 605 L 316 605 L 316 579 L 290 579 L 290 605"/>
  <path class="p5" d="M 316 605 L 343 605 L 343 579 L 316 579 L 316 605"/>
  <path class="p5" d="M 290 579 L 316 579 L 316 553 L 290 553 L 290 579"/>
  <path class="p5" d="M 316 579 L 343 579 L 343 553 L 316 553 L 316 579"/>
  <path class="p5" d="M 343 605 L 369 605 L 369 579 L 343 579 L 343 605"/>
  <path class="p5" d="M 369 605 L 395 605 L 395 579 L 369 579 L 369 605"/>
  <path class="p5" d="M 343 579 L 369 579 L 369 553 L 343 553 L 343 579"/>
  <path class="p5" d="M 369 579 L 395 579 L 395 553 L 369 553 L 369 579"/>
  <path class="p5" d="M 290 553 L 316 553 L 316 526 L 290 526 L 290 553"/>
  <path class="p5" d="M 316 553 L 343 553 L 343 526 L 316 526 L 316 553"/>
  <path class="p5" d="M 290 526 L 316 526 L 316 500 L 290 500 L 290 526"/>
  <path class="p5" d="M 316 526 L 343 526 L 343 500 L 316 500 L 316 526"/>
  <path class="p5" d="M 343 553 L 369 553 L 369 526 L 343 526 L 343 553"/>
  <path class="p5" d="M 369 553 L 395 553 L 395 526 L 369 526 L 369 553"/>
  <path class="p5" d="M 343 526 L 369 526 L 369 500 L 343 500 L 343 526"/>
  <path class="p5" d="M 369 526 L 395 526 L 395 500 L 369 500 L 369 526"/>
  <path class="p5" d="M 395 605 L 421 605 L 421 579 L 395 579 L 395 605"/>
  <path class="p5" d="M 421 605 L 448 605 L 448 579 L 421 579 L 421 605"/>
  <path class="p5" d="M 395 579 L 421 579 L 421 553 L 395 553 L 395 579"/>
  <path class="p5" d="M 421 579 L 448 579 L 448 553 L 421 553 L 421 579"/>
  <path class="p5" d="M 448 605 L 474 605 L 474 579 L 448 579 L 448 605"/>
  <path class="p5" d="M 474 605 L 500 605 L 500 579 L 474 579 L 474 605"/>
  <path class="p5" d="M 448 579 L 474 579 L 474 553 L 448 553 L 448 579"/>
  <path class="p5" d="M 474 579 L 500 579 L 500 553 L 474 553 L 474 579"/>
  <path class="p5" d="M 395 553 L 421 553 L 421 526 L 395 526 L 395 553"/>
  <path class="p5" d="M 421 553 L 448 553 L 448 526 L 421 526 L 421 553"/>
  <path class="p5" d="M 395 526 L 421 526 L 421 500 L 395 500 L 395 526"/>
  <path class="p5" d="M 421 526 L 448 526 L 448 500 L 421 500 L 421 526"/>
  <path class="p5" d="M 448 553 L 474 553 L 474 526 L 448 526 L 448 553"/>
  <path class="p5" d="M 474 553 L 500 553 L 500 526 L 474 526 L 474 553"/>
  <path class="p5" d="M 448 526 L 474 526 L 474 500 L 448 500 L 448 526"/>
  <path class="p5" d="M 474 526 L 500 526 L 500 500 L 474 500 L 474 526"/>
  <path class="p5" d="M 500 920 L 526 920 L 526 894 L 500 894 L 500 920"/>
  <line x1="500" y1="920" x2="526" y2="920"/>
  <path class="p5" d="M 526 920 L 553 920 L 553 894 L 526 894 L 526 920"/>
  <line x1="526" y1="920" x2="553" y2="920"/>
  <path class="p5" d="M 500 894 L 526 894 L 526 868 L 500 868 L 500 894"/>
  <path class="p5" d="M 526 894 L 553 894 L 553 868 L 526 868 L 526 894"/>
  <path class="p5" d="M 553 920 L 579 920 L 579 894 L 553 894 L 553 920"/>
  <line x1="553" y1="920" x2="579" y2="920"/>
  <path class="p5" d="M 579 920 L 605 920 L 605 894 L 579 894 L 579 920"/>
  <line x1="579" y1="920" x2="605" y2="920"/>
  <path class="p5" d="M 553 894 L 579 894 L 579 868 L 553 868 L 553 894"/>
  <path class="p5" d="M 579 894 L 605 894 L 605 868 L 579 868 L 579 894"/>
  <path class="p5" d="M 500 868 L 526 868 L 526 841 L 500 841 L 500 868"/>
  <path class="p5" d="M 526 868 L 553 868 L 553 841 L 526 841 L 526 868"/>
  <path class="p5" d="M 500 841 L 526 841 L 526 815 L 500 815 L 500 841"/>
  <path class="p5" d="M 526 841 L 553 841 L 553 815 L 526 815 L 526 841"/>
  <path class="p5" d="M 553 868 L 579 868 L 579 841 L 553 841 L 553 868"/>
  <path class="p5" d="M 579 868 L 605 868 L 605 841 L 579 841 L 579 868"/>
  <path class="p5" d="M 553 841 L 579 841 L 579 815 L 553 815 L 553 841"/>
  <path class="p5" d="M 579 841 L 605 841 L 605 815 L 579 815 L 579 841"/>
  <path class="p5" d="M 605 920 L 631 920 L 631 894 L 605 894 L 605 920"/>
  <line x1="605" y1="920" x2="631" y2="920"/>
  <path class="p5" d="M 631 920 L 658 920 L 658 894 L 631 894 L 631 920"/>
  <line x1="631" y1="920" x2="658" y2="920"/>
  <path class="p5" d="M 605 894 L 631 894 L 631 868 L 605 868 L 605 894"/>
  <path class="p5" d="M 631 894 L 658 894 L 658 868 L 631 868 L 631 894"/>
  <path class="p5" d="M 658 920 L 684 920 L 684 894 L 658 894 L 658 920"/>
  <line x1="658" y1="920" x2="684" y2="920"/>
  <path class="p5" d="M 684 920 L 710 920 L 710 894 L 684 894 L 684 920"/>
  <line x1="684" y1="920" x2="710" y2="920"/>
  <path class="p5" d="M 658 894 L 684 894 L 684 868 L 658 868 L 658 894"/>
  <path class="p5" d="M 684 894 L 710 894 L 710 868 L 684 868 L 684 894"/>
  <path class="p5" d="M 605 868 L 631 868 L 631 841 L 605 841 L 605 868"/>
  <path class="p5" d="M 631 868 L 658 868 L 658 841 L 631 841 L 631 868"/>
  <path class="p5" d="M 605 841 L 631 841 L 631 815 L 605 815 L 605 841"/>
  <path class="p5" d="M 631 841 L 658 841 L 658 815 L 631 815 L 631 841"/>
  <path class="p5" d="M 658 868 L 684 868 L 684 841 L 658 841 L 658 868"/>
  <path class="p5" d="M 684 868 L 710 868 L 710 841 L 684 841 L 684 868"/>
  <path class="p5" d="M 658 841 L 684 841 L 684 815 L 658 815 L 658 841"/>
  <path class="p5" d="M 684 841 L 710 841 L 710 815 L 684 815 L 684 841"/>
  <path class="p5" d="M 500 815 L 526 815 L 526 789 L 500 789 L 500 815"/>
  <path class="p5" d="M 526 815 L 553 815 L 553 789 L 526 789 L 526 815"/>
  <path class="p5" d="M 500 789 L 526 789 L 526 763 L 500 763 L 500 789"/>
  <path class="p5" d="M 526 789 L 553 789 L 553 763 L 526 763 L 526 789"/>
  <path class="p5" d="M 553 815 L 579 815 L 579 789 L 553 789 L 553 815"/>
  <path class="p5" d="M 579 815 L 605 815 L 605 789 L 579 789 L 579 815"/>
  <path class="p5" d="M 553 789 L 579 789 L 579 763 L 553 763 L 553 789"/>
  <path class="p5" d="M 579 789 L 605 789 L 605 763 L 579 763 L 579 789"/>
  <path class="p5" d="M 500 763 L 526 763 L 526 736 L 500 736 L 500 763"/>
  <path class="p5" d="M 526 763 L 553 763 L 553 736 L 526 736 L 526 763"/>
  <path class="p5" d="M 500 736 L 526 736 L 526 710 L 500 710 L 500 736"/>
  <path class="p5" d="M 526 736 L 553 736 L 553 710 L 526 710 L 526 736"/>
  <path class="p5" d="M 553 763 L 579 763 L 579 736 L 553 736 L 553 763"/>
  <path class="p5" d="M 579 763 L 605 763 L 605 736 L 579 736 L 579 763"/>
  <path class="p5" d="M 553 736 L 579 736 L 579 710 L 553 710 L 553 736"/>
  <path class="p5" d="M 579 736 L 605 736 L 605 710 L 579 710 L 579 736"/>
  <path class="p5" d="M 605 815 L 631 815 L 631 789 L 605 789 L 605 815"/>
  <path class="p5" d="M 631 815 L 658 815 L 658 789 L 631 789 L 631 815"/>
  <path class="p5" d="M 605 789 L 631 789 L 631 763 L 605 763 L 605 789"/>
  <path class="p5" d="M 631 789 L 658 789 L 658 763 L 631 763 L 631 789"/>
  <path class="p5" d="M 658 815 L 684 815 L 684 789 L 658 789 L 658 815"/>
  <path class="p5" d="M 684 815 L 710 815 L 710 789 L 684 789 L 684 815"/>
  <path class="p5" d="M 658 789 L 684 789 L 684 763 L 658 763 L 658 789"/>
  <path class="p5" d="M 684 789 L 710 789 L 710 763 L 684 763 L 684 789"/>
  <path class="p5" d="M 605 763 L 631 763 L 631 736 L 605 736 L 605 763"/>
  <path class="p5" d="M 631 763 L 658 763 L 658 736 L 631 736 L 631 763"/>
  <path class="p5" d="M 605 736 L 631 736 L 631 710 L 605 710 L 605 736"/>
  <path class="p5" d="M 631 736 L 658 736 L 658 710 L 631 710 L 631 736"/>
  <path class="p5" d="M 658 763 L 684 763 L 684 736 L 658 736 L 658 763"/>
  <path class="p5" d="M 684 763 L 710 763 L 710 736 L 684 736 L 684 763"/>
  <path class="p5" d="M 658 736 L 684 736 L 684 710 L 658 710 L 658 736"/>
  <path class="p5" d="M 684 736 L 710 736 L 710 710 L 684 710 L 684 736"/>
  <path class="p5" d="M 710 920 L 736 920 L 736 894 L 710 894 L 710 920"/>
  <line x1="710" y1="920" x2="736" y2="920"/>
  <path class="p5" d="M 736 920 L 763 920 L 763 894 L 736 894 L 736 920"/>
  <line x1="736" y1="920" x2="763" y2="920"/>
  <path class="p5" d="M 710 894 L 736 894 L 736 868 L 710 868 L 710 894"/>
  <path class="p5" d="M 736 894 L 763 894 L 763 868 L 736 868 L 736 894"/>
  <path class="p5" d="M 763 920 L 789 920 L 789 894 L 763 894 L 763 920"/>
  <line x1="763" y1="920" x2="789" y2="920"/>
  <path class="p5" d="M 789 920 L 815 920 L 815 894 L 789 894 L 789 920"/>
  <line x1="789" y1="920" x2="815" y2="920"/>
  <path class="p5" d="M 763 894 L 789 894 L 789 868 L 763 868 L 763 894"/>
  <path class="p5" d="M 789 894 L 815 894 L 815 868 L 789 868 L 789 894"/>
  <path class="p5" d="M 710 868 L 736 868 L 736 841 L 710 841 L 710 868"/>
  <path class="p5" d="M 736 868 L 763 868 L 763 841 L 736 841 L 736 868"/>
  <path class="p5" d="M 710 841 L 736 841 L 736 815 L 710 815 L 710 841"/>
  <path class="p5" d="M 736 841 L 763 841 L 763 815 L 736 815 L 736 841"/>
  <path class="p5" d="M 763 868 L 789 868 L 789 841 L 763 841 L 763 868"/>
  <path class="p5" d="M 789 868 L 815 868 L 815 841 L 789 841 L 789 868"/>
  <path class="p5" d="M 763 841 L 789 841 L 789 815 L 763 815 L 763 841"/>
  <path class="p5" d="M 789 841 L 815 841 L 815 815 L 789 815 L 789 841"/>
  <path class="p5" d="M 815 920 L 841 920 L 841 894 L 815 894 L 815 920"/>
  <line x1="815" y1="920" x2="841" y2="920"/>
  <path class="p5" d="M 841 920 L 868 920 L 868 894 L 841 894 L 841 920"/>
  <line x1="841" y1="920" x2="868" y2="920"/>
  <path class="p5" d="M 815 894 L 841 894 L 841 868 L 815 868 L 815 894"/>
  <path class="p5" d="M 841 894 L 868 894 L 868 868 L 841 868 L 841 894"/>
  <path class="p5" d="M 868 920 L 894 920 L 894 894 L 868 894 L 868 920"/>
  <line x1="868" y1="920" x2="894" y2="920"/>
  <path class="p5" d="M 894 920 L 920 920 L 920 894 L 894 894 L 894 920"/>
  <line x1="920" y1="920" x2="920" y2="894"/>
  <line x1="894" y1="920" x2="920" y2="920"/>
  <path class="p5" d="M 868 894 L 894 894 L 894 868 L 868 868 L 868 894"/>
  <path class="p5" d="M 894 894 L 920 894 L 920 868 L 894 868 L 894 894"/>
  <line x1="920" y1="894" x2="920" y2="868"/>
  <path class="p5" d="M 815 868 L 841 868 L 841 841 L 815 841 L 815 868"/>
  <path class="p5" d="M 841 868 L 868 868 L 868 841 L 841 841 L 841 868"/>
  <path class="p5" d="M 815 841 L 841 841 L 841 815 L 815 815 L 815 841"/>
  <path class="p5" d="M 841 841 L 868 841 L 868 815 L 841 815 L 841 841"/>
  <path class="p5" d="M 868 868 L 894 868 L 894 841 L 868 841 L 868 868"/>
  <path class="p5" d="M 894 868 L 920 868 L 920 841 L 894 841 L 894 868"/>
  <line x1="920" y1="868" x2="920" y2="841"/>
  <path class="p5" d="M 868 841 L 894 841 L 894 815 L 868 815 L 868 841"/>
  <path class="p5" d="M 894 841 L 920 841 L 920 815 L 894 815 L 894 841"/>
  <line x1="920" y1="841" x2="920" y2="815"/>
  <path class="p5" d="M 710 815 L 736 815 L 736 789 L 710 789 L 710 815"/>
  <path class="p5" d="M 736 815 L 763 815 L 763 789 L 736 789 L 736 815"/>
  <path class="p5" d="M 710 789 L 736 789 L 736 763 L 710 763 L 710 789"/>
  <path class="p5" d="M 736 789 L 763 789 L 763 763 L 736 763 L 736 789"/>
  <path class="p5" d="M 763 815 L 789 815 L 789 789 L 763 789 L 763 815"/>
  <path class="p5" d="M 789 815 L 815 815 L 815 789 L 789 789 L 789 815"/>
  <path class="p5" d="M 763 789 L 789 789 L 789 763 L 763 763 L 763 789"/>
  <path class="p5" d="M 789 789 L 815 789 L 815 763 L 789 763 L 789 789"/>
  <path class="p5" d="M 710 763 L 736 763 L 736 736 L 710 736 L 710 763"/>
  <path class="p5" d="M 736 763 L 763 763 L 763 736 L 736 736 L 736 763"/>
  <path class="p5" d="M 710 736 L 736 736 L 736 710 L 710 710 L 710 736"/>
  <path class="p5" d="M 736 736 L 763 736 L 763 710 L 736 710 L 736 736"/>
  <path class="p5" d="M 763 763 L 789 763 L 789 736 L 763 736 L 763 763"/>
  <path class="p5" d="M 789 763 L 815 763 L 815 736 L 789 736 L 789 763"/>
  <path class="p5" d="M 763 736 L 789 736 L 789 710 L 763 710 L 763 736"/>
  <path class="p5" d="M 789 736 L 815 736 L 815 710 L 789 710 L 789 736"/>
  <path class="p5" d="M 815 815 L 841 815 L 841 789 L 815 789 L 815 815"/>
  <path class="p5" d="M 841 815 L 868 815 L 868 789 L 841 789 L 841 815"/>
  <path class="p5" d="M 815 789 L 841 789 L 841 763 L 815 763 L 815 789"/>
  <path class="p5" d="M 841 789 L 868 789 L 868 763 L 841 763 L 841 789"/>
  <path class="p5" d="M 868 815 L 894 815 L 894 789 L 868 789 L 868 815"/>
  <path class="p5" d="M 894 815 L 920 815 L 920 789 L 894 789 L 894 815"/>
  <line x1="920" y1="815" x2="920" y2="789"/>
  <path class="p5" d="M 868 789 L 894 789 L 894 763 L 868 763 L 868 789"/>
  <path class="p5" d="M 894 789 L 920 789 L 920 763 L 894 763 L 894 789"/>
  <line x1="920" y1="789" x2="920" y2="763"/>
  <path class="p5" d="M 815 763 L 841 763 L 841 736 L 815 736 L 815 763"/>
  <path class="p5" d="M 841 763 L 868 763 L 868 736 L 841 736 L 841 763"/>
  <path class="p5" d="M 815 736 L 841 736 L 841 710 L 815 710 L 815 736"/>
  <path class="p5" d="M 841 736 L 868 736 L 868 710 L 841 710 L 841 736"/>
  <path class="p5" d="M 868 763 L 894 763 L 894 736 L 868 736 L 868 763"/>
  <path class="p5" d="M 894 763 L 920 763 L 920 736 L 894 736 L 894 763"/>
  <line x1="920" y1="763" x2="920" y2="736"/>
  <path class="p5" d="M 868 736 L 894 736 L 894 710 L 868 710 L 868 736"/>
  <path class="p5" d="M 894 736 L 920 736 L 920 710 L 894 710 L 894 736"/>
  <line x1="920" y1="736" x2="920" y2="710"/>
  <path class="p5" d="M 500 710 L 526 710 L 526 684 L 500 684 L 500 710"/>
  <path class="p5" d="M 526 710 L 553 710 L 553 684 L 526 684 L 526 710"/>
  <path class="p5" d="M 500 684 L 526 684 L 526 658 L 500 658 L 500 684"/>
  <path class="p5" d="M 526 684 L 553 684 L 553 658 L 526 658 L 526 684"/>
  <path class="p5" d="M 553 710 L 579 710 L 579 684 L 553 684 L 553 710"/>
  <path class="p5" d="M 579 710 L 605 710 L 605 684 L 579 684 L 579 710"/>
  <path class="p5" d="M 553 684 L 579 684 L 579 658 L 553 658 L 553 684"/>
  <path class="p5" d="M 579 684 L 605 684 L 605 658 L 579 658 L 579 684"/>
  <path class="p5" d="M 500 658 L 526 658 L 526 631 L 500 631 L 500 658"/>
  <path class="p5" d="M 526 658 L 553 658 L 553 631 L 526 631 L 526 658"/>
  <path class="p5" d="M 500 631 L 526 631 L 526 605 L 500 605 L 500 631"/>
  <path class="p5" d="M 526 631 L 553 631 L 553 605 L 526 605 L 526 631"/>
  <path class="p5" d="M 553 658 L 579 658 L 579 631 L 553 631 L 553 658"/>
  <path class="p5" d="M 579 658 L 605 658 L 605 631 L 579 631 L 579 658"/>
  <path class="p5" d="M 553 631 L 579 631 L 579 605 L 553 605 L 553 631"/>
  <path class="p5" d="M 579 631 L 605 631 L 605 605 L 579 605 L 579 631"/>
  <path class="p5" d="M 605 710 L 631 710 L 631 684 L 605 684 L 605 710"/>
  <path class="p5" d="M 631 710 L 658 710 L 658 684 L 631 684 L 631 710"/>
  <path class="p5" d="M 605 684 L 631 684 L 631 658 L 605 658 L 605 684"/>
  <path class="p5" d="M 631 684 L 658 684 L 658 658 L 631 658 L 631 684"/>
  <path class="p5" d="M 658 710 L 684 710 L 684 684 L 658 684 L 658 710"/>
  <path class="p5" d="M 684 710 L 710 710 L 710 684 L 684 684 L 684 710"/>
  <path class="p5" d="M 658 684 L 684 684 L 684 658 L 658 658 L 658 684"/>
  <path class="p5" d="M 684 684 L 710 684 L 710 658 L 684 658 L 684 684"/>
  <path class="p5" d="M 605 658 L 631 658 L 631 631 L 605 631 L 605 658"/>
  <path class="p5" d="M 631 658 L 658 658 L 658 631 L 631 631 L 631 658"/>
  <path class="p5" d="M 605 631 L 631 631 L 631 605 L 605 605 L 605 631"/>
  <path class="p5" d="M 631 631 L 658 631 L 658 605 L 631 605 L 631 631"/>
  <path class="p5" d="M 658 658 L 684 658 L 684 631 L 658 631 L 658 658"/>
  <path class="p5" d="M 684 658 L 710 658 L 710 631 L 684 631 L 684 658"/>
  <path class="p5" d="M 658 631 L 684 631 L 684 605 L 658 605 L 658 631"/>
  <path class="p5" d="M 684 631 L 710 631 L 710 605 L 684 605 L 684 631"/>
  <path class="p5" d="M 500 605 L 526 605 L 526 579 L 500 579 L 500 605"/>
  <path class="p5" d="M 526 605 L 553 605 L 553 579 L 526 579 L 526 605"/>
  <path class="p5" d="M 500 579 L 526 579 L 526 553 L 500 553 L 500 579"/>
  <path class="p5" d="M 526 579 L 553 579 L 553 553 L 526 553 L 526 579"/>
  <path class="p5" d="M 553 605 L 579 605 L 579 579 L 553 579 L 553 605"/>
  <path class="p5" d="M 579 605 L 605 605 L 605 579 L 579 579 L 579 605"/>
  <path class="p5" d="M 553 579 L 579 579 L 579 553 L 553 553 L 553 579"/>
  <path class="p5" d="M 579 579 L 605 579 L 605 553 L 579 553 L 579 579"/>
  <path class="p5" d="M 500 553 L 526 553 L 526 526 L 500 526 L 500 553"/>
  <path class="p5" d="M 526 553 L 553 553 L 553 526 L 526 526 L 526 553"/>
  <path class="p5" d="M 500 526 L 526 526 L 526 500 L 500 500 L 500 526"/>
  <path class="p5" d="M 526 526 L 553 526 L 553 500 L 526 500 L 526 526"/>
  <path class="p5" d="M 553 553 L 579 553 L 579 526 L 553 526 L 553 553"/>
  <path class="p5" d="M 579 553 L 605 553 L 605 526 L 579 526 L 579 553"/>
  <path class="p5" d="M 553 526 L 579 526 L 579 500 L 553 500 L 553 526"/>
  <path class="p5" d="M 579 526 L 605 526 L 605 500 L 579 500 L 579 526"/>
  <path class="p5" d="M 605 605 L 631 605 L 631 579 L 605 579 L 605 605"/>
  <path class="p5" d="M 631 605 L 658 605 L 658 579 L 631 579 L 631 605"/>
  <path class="p5" d="M 605 579 L 631 579 L 631 553 L 605 553 L 605 579"/>
  <path class="p5" d="M 631 579 L 658 579 L 658 553 L 631 553 L 631 579"/>
  <path class="p5" d="M 658 605 L 684 605 L 684 579 L 658 579 L 658 605"/>
  <path class="p5" d="M 684 605 L 710 605 L 710 579 L 684 579 L 684 605"/>
  <path class="p5" d="M 658 579 L 684 579 L 684 553 L 658 553 L 658 579"/>
  <path class="p5" d="M 684 579 L 710 579 L 710 553 L 684 553 L 684 579"/>
  <path class="p5" d="M 605 553 L 631 553 L 631 526 L 605 526 L 605 553"/>
  <path class="p5" d="M 631 553 L 658 553 L 658 526 L 631 526 L 631 553"/>
  <path class="p5" d="M 605 526 L 631 526 L 631 500 L 605 500 L 605 526"/>
  <path class="p5" d="M 631 526 L 658 526 L 658 500 L 631 500 L 631 526"/>
  <path class="p5" d="M 658 553 L 684 553 L 684 526 L 658 526 L 658 553"/>
  <path class="p5" d="M 684 553 L 710 553 L 710 526 L 684 526 L 684 553"/>
  <path class="p5" d="M 658 526 L 684 526 L 684 500 L 658 500 L 658 526"/>
  <path class="p5" d="M 684 526 L 710 526 L 710 500 L 684 500 L 684 526"/>
  <path class="p5" d="M 710 710 L 736 710 L 736 684 L 710 684 L 710 710"/>
  <path class="p5" d="M 736 710 L 763 710 L 763 684 L 736 684 L 736 710"/>
  <path class="p5" d="M 710 684 L 736 684 L 736 658 L 710 658 L 710 684"/>
  <path class="p5" d="M 736 684 L 763 684 L 763 658 L 736 658 L 736 684"/>
  <path class="p5" d="M 763 710 L 789 710 L 789 684 L 763 684 L 763 710"/>
  <path class="p5" d="M 789 710 L 815 710 L 815 684 L 789 684 L 789 710"/>
  <path class="p5" d="M 763 684 L 789 684 L 789 658 L 763 658 L 763 684"/>
  <path class="p5" d="M 789 684 L 815 684 L 815 658 L 789 658 L 789 684"/>
  <path class="p5" d="M 710 658 L 736 658 L 736 631 L 710 631 L 710 658"/>
  <path class="p5" d="M 736 658 L 763 658 L 763 631 L 736 631 L 736 658"/>
  <path class="p5" d="M 710 631 L 736 631 L 736 605 L 710 605 L 710 631"/>
  <path class="p5" d="M 736 631 L 763 631 L 763 605 L 736 605 L 736 631"/>
  <path class="p5" d="M 763 658 L 789 658 L 789 631 L 763 631 L 763 658"/>
  <path class="p5" d="M 789 658 L 815 658 L 815 631 L 789 631 L 789 658"/>
  <path class="p5" d="M 763 631 L 789 631 L 789 605 L 763 605 L 763 631"/>
  <path class="p5" d="M 789 631 L 815 631 L 815 605 L 789 605 L 789 631"/>
  <path class="p5" d="M 815 710 L 841 710 L 841 684 L 815 684 L 815 710"/>
  <path class="p5" d="M 841 710 L 868 710 L 868 684 L 841 684 L 841 710"/>
  <path class="p5" d="M 815 684 L 841 684 L 841 658 L 815 658 L 815 684"/>
  <path class="p5" d="M 841 684 L 868 684 L 868 658 L 841 658 L 841 684"/>
  <path class="p5" d="M 868 710 L 894 710 L 894 684 L 868 684 L 868 710"/>
  <path class="p5" d="M 894 710 L 920 710 L 920 684 L 894 684 L 894 710"/>
  <line x1="920" y1="710" x2="920" y2="684"/>
  <path class="p5" d="M 868 684 L 894 684 L 894 658 L 868 658 L 868 684"/>
  <path class="p5" d="M 894 684 L 920 684 L 920 658 L 894 658 L 894 684"/>
  <line x1="920" y1="684" x2="920" y2="658"/>
  <path class="p5" d="M 815 658 L 841 658 L 841 631 L 815 631 L 815 658"/>
  <path class="p5" d="M 841 658 L 868 658 L 868 631 L 841 631 L 841 658"/>
  <path class="p5" d="M 815 631 L 841 631 L 841 605 L 815 605 L 815 631"/>
  <path class="p5" d="M 841 631 L 868 631 L 868 605 L 841 605 L 841 631"/>
  <path class="p5" d="M 868 658 L 894 658 L 894 631 L 868 631 L 868 658"/>
  <path class="p5" d="M 894 658 L 920 658 L 920 631 L 894 631 L 894 658"/>
  <line x1="920" y1="658" x2="920" y2="631"/>
  <path class="p5" d="M 868 631 L 894 631 L 894 605 L 868 605 L 868 631"/>
  <path class="p5" d="M 894 631 L 920 631 L 920 605 L 894 605 L 894 631"/>
  <line x1="920" y1="631" x2="920" y2="605"/>
  <path class="p5" d="M 710 605 L 736 605 L 736 579 L 710 579 L 710 605"/>
  <path class="p5" d="M 736 605 L 763 605 L 763 579 L 736 579 L 736 605"/>
  <path class="p5" d="M 710 579 L 736 579 L 736 553 L 710 553 L 710 579"/>
  <path class="p5" d="M 736 579 L 763 579 L 763 553 L 736 553 L 736 579"/>
  <path class="p5" d="M 763 605 L 789 605 L 789 579 L 763 579 L 763 605"/>
  <path class="p5" d="M 789 605 L 815 605 L 815 579 L 789 579 L 789 605"/>
  <path class="p5" d="M 763 579 L 789 579 L 789 553 L 763 553 L 763 579"/>
  <path class="p5" d="M 789 579 L 815 579 L 815 553 L 789 553 L 789 579"/>
  <path class="p5" d="M 710 553 L 736 553 L 736 526 L 710 526 L 710 553"/>
  <path class="p5" d="M 736 553 L 763 553 L 763 526 L 736 526 L 736 553"/>
  <path class="p5" d="M 710 526 L 736 526 L 736 500 L 710 500 L 710 526"/>
  <path class="p5" d="M 736 526 L 763 526 L 763 500 L 736 500 L 736 526"/>
  <path class="p5" d="M 763 553 L 789 553 L 789 526 L 763 526 L 763 553"/>
  <path class="p5" d="M 789 553 L 815 553 L 815 526 L 789 526 L 789 553"/>
  <path class="p5" d="M 763 526 L 789 526 L 789 500 L 763 500 L 763 526"/>
  <path class="p5" d="M 789 526 L 815 526 L 815 500 L 789 500 L 789 526"/>
  <path class="p5" d="M 815 605 L 841 605 L 841 579 L 815 579 L 815 605"/>
  <path class="p5" d="M 841 605 L 868 605 L 868 579 L 841 579 L 841 605"/>
  <path class="p5" d="M 815 579 L 841 579 L 841 553 L 815 553 L 815 579"/>
  <path class="p5" d="M 841 579 L 868 579 L 868 553 L 841 553 L 841 579"/>
  <path class="p5" d="M 868 605 L 894 605 L 894 579 L 868 579 L 868 605"/>
  <path class="p5" d="M 894 605 L 920 605 L 920 579 L 894 579 L 894 605"/>
  <line x1="920" y1="605" x2="920" y2="579"/>
  <path class="p5" d="M 868 579 L 894 579 L 894 553 L 868 553 L 868 579"/>
  <path class="p5" d="M 894 579 L 920 579 L 920 553 L 894 553 L 894 579"/>
  <line x1="920" y1="579" x2="920" y2="553"/>
  <path class="p5" d="M 815 553 L 841 553 L 841 526 L 815 526 L 815 553"/>
  <path class="p5" d="M 841 553 L 868 553 L 868 526 L 841 526 L 841 553"/>
  <path class="p5" d="M 815 526 L 841 526 L 841 500 L 815 500 L 815 526"/>
  <path class="p5" d="M 841 526 L 868 526 L 868 500 L 841 500 L 841 526"/>
  <path class="p5" d="M 868 553 L 894 553 L 894 526 L 868 526 L 868 553"/>
  <path class="p5" d="M 894 553 L 920 553 L 920 526 L 894 526 L 894 553"/>
  <line x1="920" y1="553" x2="920" y2="526"/>
  <path class="p5" d="M 868 526 L 894 526 L 894 500 L 868 500 L 868 526"/>
  <path class="p5" d="M 894 526 L 920 526 L 920 500 L 894 500 L 894 526"/>
  <line x1="920" y1="526" x2="920" y2="500"/>
  <path class="p5" d="M 80 500 L 106 500 L 106 474 L 80 474 L 80 500"/>
  <line x1="80" y1="500" x2="80" y2="474"/>
  <path class="p5" d="M 106 500 L 133 500 L 133 474 L 106 474 L 106 500"/>
  <path class="p5" d="M 80 474 L 106 474 L 106 448 L 80 448 L 80 474"/>
  <line x1="80" y1="474" x2="80" y2="448"/>
  <path class="p5" d="M 106 474 L 133 474 L 133 448 L 106 448 L 106 474"/>
  <path class="p5" d="M 133 500 L 159 500 L 159 474 L 133 474 L 133 500"/>
  <path class="p5" d="M 159 500 L 185 500 L 185 474 L 159 474 L 159 500"/>
  <path class="p5" d="M 133 474 L 159 474 L 159 448 L 133 448 L 133 474"/>
  <path class="p5" d="M 159 474 L 185 474 L 185 448 L 159 448 L 159 474"/>
  <path class="p5" d="M 80 448 L 106 448 L 106 421 L 80 421 L 80 448"/>
  <line x1="80" y1="448" x2="80" y2="421"/>
  <path class="p5" d="M 106 448 L 133 448 L 133 421 L 106 421 L 106 448"/>
  <path class="p5" d="M 80 421 L 106 421 L 106 395 L 80 395 L 80 421"/>
  <line x1="80" y1="421" x2="80" y2="395"/>
  <path class="p5" d="M 106 421 L 133 421 L 133 395 L 106 395 L 106 421"/>
  <path class="p5" d="M 133 448 L 159 448 L 159 421 L 133 421 L 133 448"/>
  <path class="p5" d="M 159 448 L 185 448 L 185 421 L 159 421 L 159 448"/>
  <path class="p5" d="M 133 421 L 159 421 L 159 395 L 133 395 L 133 421"/>
  <path class="p5" d="M 159 421 L 185 421 L 185 395 L 159 395 L 159 421"/>
  <path class="p5" d="M 185 500 L 211 500 L 211 474 L 185 474 L 185 500"/>
  <path class="p5" d="M 211 500 L 238 500 L 238 474 L 211 474 L 211 500"/>
  <path class="p5" d="M 185 474 L 211 474 L 211 448 L 185 448 L 185 474"/>
  <path class="p5" d="M 211 474 L 238 474 L 238 448 L 211 448 L 211 474"/>
  <path class="p5" d="M 238 500 L 264 500 L 264 474 L 238 474 L 238 500"/>
  <path class="p5" d="M 264 500 L 290 500 L 290 474 L 264 474 L 264 500"/>
  <path class="p5" d="M 238 474 L 264 474 L 264 448 L 238 448 L 238 474"/>
  <path class="p5" d="M 264 474 L 290 474 L 290 448 L 264 448 L 264 474"/>
  <path class="p5" d="M 185 448 L 211 448 L 211 421 L 185 421 L 185 448"/>
  <path class="p5" d="M 211 448 L 238 448 L 238 421 L 211 421 L 211 448"/>
  <path class="p5" d="M 185 421 L 211 421 L 211 395 L 185 395 L 185 421"/>
  <path class="p5" d="M 211 421 L 238 421 L 238 395 L 211 395 L 211 421"/>
  <path class="p5" d="M 238 448 L 264 448 L 264 421 L 238 421 L 238 448"/>
  <path class="p5" d="M 264 448 L 290 448 L 290 421 L 264 421 L 264 448"/>
  <path class="p5" d="M 238 421 L 264 421 L 264 395 L 238 395 L 238 421"/>
  <path class="p5" d="M 264 421 L 290 421 L 290 395 L 264 395 L 264 421"/>
  <path class="p5" d="M 80 395 L 106 395 L 106 369 L 80 369 L 80 395"/>
  <line x1="80" y1="395" x2="80" y2="369"/>
  <path class="p5" d="M 106 395 L 133 395 L 133 369 L 106 369 L 106 395"/>
  <path class="p5" d="M 80 369 L 106 369 L 106 343 L 80 343 L 80 369"/>
  <line x1="80" y1="369" x2="80" y2="343"/>
  <path class="p5" d="M 106 369 L 133 369 L 133 343 L 106 343 L 106 369"/>
  <path class="p5" d="M 133 395 L 159 395 L 159 369 L 133 369 L 133 395"/>
  <path class="p5" d="M 159 395 L 185 395 L 185 369 L 159 369 L 159 395"/>
  <path class="p5" d="M 133 369 L 159 369 L 159 343 L 133 343 L 133 369"/>
  <path class="p5" d="M 159 369 L 185 369 L 185 343 L 159 343 L 159 369"/>
  <path class="p5" d="M 80 343 L 106 343 L 106 316 L 80 316 L 80 343"/>
  <line x1="80" y1="343" x2="80" y2="316"/>
  <path class="p5" d="M 106 343 L 133 343 L 133 316 L 106 316 L 106 343"/>
  <path class="p5" d="M 80 316 L 106 316 L 106 290 L 80 290 L 80 316"/>
  <line x1="80" y1="316" x2="80" y2="290"/>
  <path class="p5" d="M 106 316 L 133 316 L 133 290 L 106 290 L 106 316"/>
  <path class="p5" d="M 133 343 L 159 343 L 159 316 L 133 316 L 133 343"/>
  <path class="p5" d="M 159 343 L 185 343 L 185 316 L 159 316 L 159 343"/>
  <path class="p5" d="M 133 316 L 159 316 L 159 290 L 133 290 L 133 316"/>
  <path class="p5" d="M 159 316 L 185 316 L 185 290 L 159 290 L 159 316"/>
  <path class="p5" d="M 185 395 L 211 395 L 211 369 L 185 369 L 185 395"/>
  <path class="p5" d="M 211 395 L 238 395 L 238 369 L 211 369 L 211 395"/>
  <path class="p5" d="M 185 369 L 211 369 L 211 343 L 185 343 L 185 369"/>
  <path class="p5" d="M 211 369 L 238 369 L 238 343 L 211 343 L 211 369"/>
  <path class="p5" d="M 238 395 L 264 395 L 264 369 L 238 369 L 238 395"/>
  <path class="p5" d="M 264 395 L 290 395 L 290 369 L 264 369 L 264 395"/>
  <path class="p5" d="M 238 369 L 264 369 L 264 343 L 238 343 L 238 369"/>
  <path class="p5" d="M 264 369 L 290 369 L 290 343 L 264 343 L 264 369"/>
  <path class="p5" d="M 185 343 L 211 343 L 211 316 L 185 316 L 185 343"/>
  <path class="p5" d="M 211 343 L 238 343 L 238 316 L 211 316 L 211 343"/>
  <path class="p5" d="M 185 316 L 211 316 L 211 290 L 185 290 L 185 316"/>
  <path class="p5" d="M 211 316 L 238 316 L 238 290 L 211 290 L 211 316"/>
  <path class="p5" d="M 238 343 L 264 343 L 264 316 L 238 316 L 238 343"/>
  <path class="p5" d="M 264 343 L 290 343 L 290 316 L 264 316 L 264 343"/>
  <path class="p5" d="M 238 316 L 264 316 L 264 290 L 238 290 L 238 316"/>
  <path class="p5" d="M 264 316 L 290 316 L 290 290 L 264 290 L 264 316"/>
  <path class="p5" d="M 290 500 L 316 500 L 316 474 L 290 474 L 290 500"/>
  <path class="p5" d="M 316 500 L 343 500 L 343 474 L 316 474 L 316 500"/>
  <path class="p5" d="M 290 474 L 316 474 L 316 448 L 290 448 L 290 474"/>
  <path class="p5" d="M 316 474 L 343 474 L 343 448 L 316 448 L 316 474"/>
  <path class="p5" d="M 343 500 L 369 500 L 369 474 L 343 474 L 343 500"/>
  <path class="p5" d="M 369 500 L 395 500 L 395 474 L 369 474 L 369 500"/>
  <path class="p5" d="M 343 474 L 369 474 L 369 448 L 343 448 L 343 474"/>
  <path class="p5" d="M 369 474 L 395 474 L 395 448 L 369 448 L 369 474"/>
  <path class="p5" d="M 290 448 L 316 448 L 316 421 L 290 421 L 290 448"/>
  <path class="p5" d="M 316 448 L 343 448 L 343 421 L 316 421 L 316 448"/>
  <path class="p5" d="M 290 421 L 316 421 L 316 395 L 290 395 L 290 421"/>
  <path class="p5" d="M 316 421 L 343 421 L 343 395 L 316 395 L 316 421"/>
  <path class="p5" d="M 343 448 L 369 448 L 369 421 L 343 421 L 343 448"/>
  <path class="p5" d="M 369 448 L 395 448 L 395 421 L 369 421 L 369 448"/>
  <path class="p5" d="M 343 421 L 369 421 L 369 395 L 343 395 L 343 421"/>
  <path class="p5" d="M 369 421 L 395 421 L 395 395 L 369 395 L 369 421"/>
  <path class="p5" d="M 395 500 L 421 500 L 421 474 L 395 474 L 395 500"/>
  <path class="p5" d="M 421 500 L 448 500 L 448 474 L 421 474 L 421 500"/>
  <path class="p5" d="M 395 474 L 421 474 L 421 448 L 395 448 L 395 474"/>
  <path class="p5" d="M 421 474 L 448 474 L 448 448 L 421 448 L 421 474"/>
  <path class="p5" d="M 448 500 L 474 500 L 474 474 L 448 474 L 448 500"/>
  <path class="p5" d="M 474 500 L 500 500 L 500 474 L 474 474 L 474 500"/>
  <path class="p5" d="M 448 474 L 474 474 L 474 448 L 448 448 L 448 474"/>
  <path class="p5" d="M 474 474 L 500 474 L 500 448 L 474 448 L 474 474"/>
  <path class="p5" d="M 395 448 L 421 448 L 421 421 L 395 421 L 395 448"/>
  <path class="p5" d="M 421 448 L 448 448 L 448 421 L 421 421 L 421 448"/>
  <path class="p5" d="M 395 421 L 421 421 L 421 395 L 395 395 L 395 421"/>
  <path class="p5" d="M 421 421 L 448 421 L 448 395 L 421 395 L 421 421"/>
  <path class="p5" d="M 448 448 L 474 448 L 474 421 L 448 421 L 448 448"/>
  <path class="p5" d="M 474 448 L 500 448 L 500 421 L 474 421 L 474 448"/>
  <path class="p5" d="M 448 421 L 474 421 L 474 395 L 448 395 L 448 421"/>
  <path class="p5" d="M 474 421 L 500 421 L 500 395 L 474 395 L 474 421"/>
  <path class="p5" d="M 290 395 L 316 395 L 316 369 L 290 369 L 290 395"/>
  <path class="p5" d="M 316 395 L 343 395 L 343 369 L 316 369 L 316 395"/>
  <path class="p5" d="M 290 369 L 316 369 L 316 343 L 290 343 L 290 369"/>
  <path class="p5" d="M 316 369 L 343 369 L 343 343 L 316 343 L 316 369"/>
  <path class="p5" d="M 343 395 L 369 395 L 369 369 L 343 369 L 343 395"/>
  <path class="p5" d="M 369 395 L 395 395 L 395 369 L 369 369 L 369 395"/>
  <path class="p5" d="M 343 369 L 369 369 L 369 343 L 343 343 L 343 369"/>
  <path class="p5" d="M 369 369 L 395 369 L 395 343 L 369 343 L 369 369"/>
  <path class="p5" d="M 290 343 L 316 343 L 316 316 L 290 316 L 290 343"/>
  <path class="p5" d="M 316 343 L 343 343 L 343 316 L 316 316 L 316 343"/>
  <path class="p5" d="M 290 316 L 316 316 L 316 290 L 290 290 L 290 316"/>
  <path class="p5" d="M 316 316 L 343 316 L 343 290 L 316 290 L 316 316"/>
  <path class="p5" d="M 343 343 L 369 343 L 369 316 L 343 316 L 343 343"/>
  <path class="p5" d="M 369 343 L 395 343 L 395 316 L 369 316 L 369 343"/>
  <path class="p5" d="M 343 316 L 369 316 L 369 290 L 343 290 L 343 316"/>
  <path class="p5" d="M 369 316 L 395 316 L 395 290 L 369 290 L 369 316"/>
  <path class="p5" d="M 395 395 L 421 395 L 421 369 L 395 369 L 395 395"/>
  <path class="p5" d="M 421 395 L 448 395 L 448 369 L 421 369 L 421 395"/>
  <path class="p5" d="M 395 369 L 421 369 L 421 343 L 395 343 L 395 369"/>
  <path class="p5" d="M 421 369 L 448 369 L 448 343 L 421 343 L 421 369"/>
  <path class="p5" d="M 448 395 L 474 395 L 474 369 L 448 369 L 448 395"/>
  <path class="p5" d="M 474 395 L 500 395 L 500 369 L 474 369 L 474 395"/>
  <path class="p5" d="M 448 369 L 474 369 L 474 343 L 448 343 L 448 369"/>
  <path class="p5" d="M 474 369 L 500 369 L 500 343 L 474 343 L 474 369"/>
  <path class="p5" d="M 395 343 L 421 343 L 421 316 L 395 316 L 395 343"/>
  <path class="p5" d="M 421 343 L 448 343 L 448 316 L 421 316 L 421 343"/>
  <path class="p5" d="M 395 316 L 421 316 L 421 290 L 395 290 L 395 316"/>
  <path class="p5" d="M 421 316 L 448 316 L 448 290 L 421 290 L 421 316"/>
  <path class="p5" d="M 448 343 L 474 343 L 474 316 L 448 316 L 448 343"/>
  <path class="p5" d="M 474 343 L 500 343 L 500 316 L 474 316 L 474 343"/>
  <path class="p5" d="M 448 316 L 474 316 L 474 290 L 448 290 L 448 316"/>
  <path class="p5" d="M 474 316 L 500 316 L 500 290 L 474 290 L 474 316"/>
  <path class="p5" d="M 80 290 L 106 290 L 106 264 L 80 264 L 80 290"/>
  <line x1="80" y1="290" x2="80" y2="264"/>
  <path class="p5" d="M 106 290 L 133 290 L 133 264 L 106 264 L 106 290"/>
  <path class="p5" d="M 80 264 L 106 264 L 106 238 L 80 238 L 80 264"/>
  <line x1="80" y1="264" x2="80" y2="238"/>
  <path class="p5" d="M 106 264 L 133 264 L 133 238 L 106 238 L 106 264"/>
  <path class="p5" d="M 133 290 L 159 290 L 159 264 L 133 264 L 133 290"/>
  <path class="p5" d="M 159 290 L 185 290 L 185 264 L 159 264 L 159 290"/>
  <path class="p5" d="M 133 264 L 159 264 L 159 238 L 133 238 L 133 264"/>
  <path class="p5" d="M 159 264 L 185 264 L 185 238 L 159 238 L 159 264"/>
  <path class="p5" d="M 80 238 L 106 238 L 106 211 L 80 211 L 80 238"/>
  <line x1="80" y1="238" x2="80" y2="211"/>
  <path class="p5" d="M 106 238 L 133 238 L 133 211 L 106 211 L 106 238"/>
  <path class="p5" d="M 80 211 L 106 211 L 106 185 L 80 185 L 80 211"/>
  <line x1="80" y1="211" x2="80" y2="185"/>
  <path class="p5" d="M 106 211 L 133 211 L 133 185 L 106 185 L 106 211"/>
  <path class="p5" d="M 133 238 L 159 238 L 159 211 L 133 211 L 133 238"/>
  <path class="p5" d="M 159 238 L 185 238 L 185 211 L 159 211 L 159 238"/>
  <path class="p5" d="M 133 211 L 159 211 L 159 185 L 133 185 L 133 211"/>
  <path class="p5" d="M 159 211 L 185 211 L 185 185 L 159 185 L 159 211"/>
  <path class="p5" d="M 185 290 L 211 290 L 211 264 L 185 264 L 185 290"/>
  <path class="p5" d="M 211 290 L 238 290 L 238 264 L 211 264 L 211 290"/>
  <path class="p5" d="M 185 264 L 211 264 L 211 238 L 185 238 L 185 264"/>
  <path class="p5" d="M 211 264 L 238 264 L 238 238 L 211 238 L 211 264"/>
  <path class="p5" d="M 238 290 L 264 290 L 264 264 L 238 264 L 238 290"/>
  <path class="p5" d="M 264 290 L 290 290 L 290 264 L 264 264 L 264 290"/>
  <path class="p5" d="M 238 264 L 264 264 L 264 238 L 238 238 L 238 264"/>
  <path class="p5" d="M 264 264 L 290 264 L 290 238 L 264 238 L 264 264"/>
  <path class="p5" d="M 185 238 L 211 238 L 211 211 L 185 211 L 185 238"/>
  <path class="p5" d="M 211 238 L 238 238 L 238 211 L 211 211 L 211 238"/>
  <path class="p5" d="M 185 211 L 211 211 L 211 185 L 185 185 L 185 211"/>
  <path class="p5" d="M 211 211 L 238 211 L 238 185 L 211 185 L 211 211"/>
  <path class="p5" d="M 238 238 L 264 238 L 264 211 L 238 211 L 238 238"/>
  <path class="p5" d="M 264 238 L 290 238 L 290 211 L 264 211 L 264 238"/>
  <path class="p5" d="M 238 211 L 264 211 L 264 185 L 238 185 L 238 211"/>
  <path class="p5" d="M 264 211 L 290 211 L 290 185 L 264 185 L 264 211"/>
  <path class="p5" d="M 80 185 L 106 185 L 106 159 L 80 159 L 80 185"/>
  <line x1="80" y1="185" x2="80" y2="159"/>
  <path class="p5" d="M 106 185 L 133 185 L 133 159 L 106 159 L 106 185"/>
  <path class="p5" d="M 80 159 L 106 159 L 106 133 L 80 133 L 80 159"/>
  <line x1="80" y1="159" x2="80" y2="133"/>
  <path class="p5" d="M 106 159 L 133 159 L 133 133 L 106 133 L 106 159"/>
  <path class="p5" d="M 133 185 L 159 185 L 159 159 L 133 159 L 133 185"/>
  <path class="p5" d="M 159 185 L 185 185 L 185 159 L 159 159 L 159 185"/>
  <path class="p5" d="M 133 159 L 159 159 L 159 133 L 133 133 L 133 159"/>
  <path class="p5" d="M 159 159 L 185 159 L 185 133 L 159 133 L 159 159"/>
  <path class="p5" d="M 80 133 L 106 133 L 106 106 L 80 106 L 80 133"/>
  <line x1="80" y1="133" x2="80" y2="106"/>
  <path class="p5" d="M 106 133 L 133 133 L 133 106 L 106 106 L 106 133"/>
  <path class="p5" d="M 80 106 L 106 106 L 106 80 L 80 80 L 80 106"/>
  <line x1="80" y1="106" x2="80" y2="80"/>
  <line x1="80" y1="80" x2="106" y2="80"/>
  <path class="p5" d="M 106 106 L 133 106 L 133 80 L 106 80 L 106 106"/>
  <line x1="106" y1="80" x2="133" y2="80"/>
  <path class="p5" d="M 133 133 L 159 133 L 159 106 L 133 106 L 133 133"/>
  <path class="p5" d="M 159 133 L 185 133 L 185 106 L 159 106 L 159 133"/>
  <path class="p5" d="M 133 106 L 159 106 L 159 80 L 133 80 L 133 106"/>
  <line x1="133" y1="80" x2="159" y2="80"/>
  <path class="p5" d="M 159 106 L 185 106 L 185 80 L 159 80 L 159 106"/>
  <line x1="159" y1="80" x2="185" y2="80"/>
  <path class="p5" d="M 185 185 L 211 185 L 211 159 L 185 159 L 185 185"/>
  <path class="p5" d="M 211 185 L 238 185 L 238 159 L 211 159 L 211 185"/>
  <path class="p5" d="M 185 159 L 211 159 L 211 133 L 185 133 L 185 159"/>
  <path class="p5" d="M 211 159 L 238 159 L 238 133 L 211 133 L 211 159"/>
  <path class="p5" d="M 238 185 L 264 185 L 264 159 L 238 159 L 238 185"/>
  <path class="p5" d="M 264 185 L 290 185 L 290 159 L 264 159 L 264 185"/>
  <path class="p5" d="M 238 159 L 264 159 L 264 133 L 238 133 L 238 159"/>
  <path class="p5" d="M 264 159 L 290 159 L 290 133 L 264 133 L 264 159"/>
  <path class="p5" d="M 185 133 L 211 133 L 211 106 L 185 106 L 185 133"/>
  <path class="p5" d="M 211 133 L 238 133 L 238 106 L 211 106 L 211 133"/>
  <path class="p5" d="M 185 106 L 211 106 L 211 80 L 185 80 L 185 106"/>
  <line x1="185" y1="80" x2="211" y2="80"/>
  <path class="p5" d="M 211 106 L 238 106 L 238 80 L 211 80 L 211 106"/>
  <line x1="211" y1="80" x2="238" y2="80"/>
  <path class="p5" d="M 238 133 L 264 133 L 264 106 L 238 106 L 238 133"/>
  <path class="p5" d="M 264 133 L 290 133 L 290 106 L 264 106 L 264 133"/>
  <path class="p5" d="M 238 106 L 264 106 L 264 80 L 238 80 L 238 106"/>
  <line x1="238" y1="80" x2="264" y2="80"/>
  <path class="p5" d="M 264 106 L 290 106 L 290 80 L 264 80 L 264 106"/>
  <line x1="264" y1="80" x2="290" y2="80"/>
  <path class="p5" d="M 290 290 L 316 290 L 316 264 L 290 264 L 290 290"/>
  <path class="p5" d="M 316 290 L 343 290 L 343 264 L 316 264 L 316 290"/>
  <path class="p5" d="M 290 264 L 316 264 L 316 238 L 290 238 L 290 264"/>
  <path class="p5" d="M 316 264 L 343 264 L 343 238 L 316 238 L 316 264"/>
  <path class="p5" d="M 343 290 L 369 290 L 369 264 L 343 264 L 343 290"/>
  <path class="p5" d="M 369 290 L 395 290 L 395 264 L 369 264 L 369 290"/>
  <path class="p5" d="M 343 264 L 369 264 L 369 238 L 343 238 L 343 264"/>
  <path class="p5" d="M 369 264 L 395 264 L 395 238 L 369 238 L 369 264"/>
  <path class="p5" d="M 290 238 L 316 238 L 316 211 L 290 211 L 290 238"/>
  <path class="p5" d="M 316 238 L 343 238 L 343 211 L 316 211 L 316 238"/>
  <path class="p5" d="M 290 211 L 316 211 L 316 185 L 290 185 L 290 211"/>
  <path class="p5" d="M 316 211 L 343 211 L 343 185 L 316 185 L 316 211"/>
  <path class="p5" d="M 343 238 L 369 238 L 369 211 L 343 211 L 343 238"/>
  <path class="p5" d="M 369 238 L 395 238 L 395 211 L 369 211 L 369 238"/>
  <path class="p5" d="M 343 211 L 369 211 L 369 185 L 343 185 L 343 211"/>
  <path class="p5" d="M 369 211 L 395 211 L 395 185 L 369 185 L 369 211"/>
  <path class="p5" d="M 395 290 L 421 290 L 421 264 L 395 264 L 395 290"/>
  <path class="p5" d="M 421 290 L 448 290 L 448 264 L 421 264 L 421 290"/>
  <path class="p5" d="M 395 264 L 421 264 L 421 238 L 395 238 L 395 264"/>
  <path class="p5" d="M 421 264 L 448 264 L 448 238 L 421 238 L 421 264"/>
  <path class="p5" d="M 448 290 L 474 290 L 474 264 L 448 264 L 448 290"/>
  <path class="p5" d="M 474 290 L 500 290 L 500 264 L 474 264 L 474 290"/>
  <path class="p5" d="M 448 264 L 474 264 L 474 238 L 448 238 L 448 264"/>
  <path class="p5" d="M 474 264 L 500 264 L 500 238 L 474 238 L 474 264"/>
  <path class="p5" d="M 395 238 L 421 238 L 421 211 L 395 211 L 395 238"/>
  <path class="p5" d="M 421 238 L 448 238 L 448 211 L 421 211 L 421 238"/>
  <path class="p5" d="M 395 211 L 421 211 L 421 185 L 395 185 L 395 211"/>
  <path class="p5" d="M 421 211 L 448 211 L 448 185 L 421 185 L 421 211"/>
  <path class="p5" d="M 448 238 L 474 238 L 474 211 L 448 211 L 448 238"/>
  <path class="p5" d="M 474 238 L 500 238 L 500 211 L 474 211 L 474 238"/>
  <path class="p5" d="M 448 211 L 474 211 L 474 185 L 448 185 L 448 211"/>
  <path class="p5" d="M 474 211 L 500 211 L 500 185 L 474 185 L 474 211"/>
  <path class="p5" d="M 290 185 L 316 185 L 316 159 L 290 159 L 290 185"/>
  <path class="p5" d="M 316 185 L 343 185 L 343 159 L 316 159 L 316 185"/>
  <path class="p5" d="M 290 159 L 316 159 L 316 133 L 290 133 L 290 159"/>
  <path class="p5" d="M 316 159 L 343 159 L 343 133 L 316 133 L 316 159"/>
  <path class="p5" d="M 343 185 L 369 185 L 369 159 L 343 159 L 343 185"/>
  <path class="p5" d="M 369 185 L 395 185 L 395 159 L 369 159 L 369 185"/>
  <path class="p5" d="M 343 159 L 369 159 L 369 133 L 343 133 L 343 159"/>
  <path class="p5" d="M 369 159 L 395 159 L 395 133 L 369 133 L 369 159"/>
  <path class="p5" d="M 290 133 L 316 133 L 316 106 L 290 106 L 290 133"/>
  <path class="p5" d="M 316 133 L 343 133 L 343 106 L 316 106 L 316 133"/>
  <path class="p5" d="M 290 106 L 316 106 L 316 80 L 290 80 L 290 106"/>
  <line x1="290" y1="80" x2="316" y2="80"/>
  <path class="p5" d="M 316 106 L 343 106 L 343 80 L 316 80 L 316 106"/>
  <line x1="316" y1="80" x2="343" y2="80"/>
  <path class="p5" d="M 343 133 L 369 133 L 369 106 L 343 106 L 343 133"/>
  <path class="p5" d="M 369 133 L 395 133 L 395 106 L 369 106 L 369 133"/>
  <path class="p5" d="M 343 106 L 369 106 L 369 80 L 343 80 L 343 106"/>
  <line x1="343" y1="80" x2="369" y2="80"/>
  <path class="p5" d="M 369 106 L 395 106 L 395 80 L 369 80 L 369 106"/>
  <line x1="369" y1="80" x2="395" y2="80"/>
  <path class="p5" d="M 395 185 L 421 185 L 421 159 L 395 159 L 395 185"/>
  <path class="p5" d="M 421 185 L 448 185 L 448 159 L 421 159 L 421 185"/>
  <path class="p5" d="M 395 159 L 421 159 L 421 133 L 395 133 L 395 159"/>
  <path class="p5" d="M 421 159 L 448 159 L 448 133 L 421 133 L 421 159"/>
  <path class="p5" d="M 448 185 L 474 185 L 474 159 L 448 159 L 448 185"/>
  <path class="p5" d="M 474 185 L 500 185 L 500 159 L 474 159 L 474 185"/>
  <path class="p5" d="M 448 159 L 474 159 L 474 133 L 448 133 L 448 159"/>
  <path class="p5" d="M 474 159 L 500 159 L 500 133 L 474 133 L 474 159"/>
  <path class="p5" d="M 395 133 L 421 133 L 421 106 L 395 106 L 395 133"/>
  <path class="p5" d="M 421 133 L 448 133 L 448 106 L 421 106 L 421 133"/>
  <path class="p5" d="M 395 106 L 421 106 L 421 80 L 395 80 L 395 106"/>
  <line x1="395" y1="80" x2="421" y2="80"/>
  <path class="p5" d="M 421 106 L 448 106 L 448 80 L 421 80 L 421 106"/>
  <line x1="421" y1="80" x2="448" y2="80"/>
  <path class="p5" d="M 448 133 L 474 133 L 474 106 L 448 106 L 448 133"/>
  <path class="p5" d="M 474 133 L 500 133 L 500 106 L 474 106 L 474 133"/>
  <path class="p5" d="M 448 106 L 474 106 L 474 80 L 448 80 L 448 106"/>
  <line x1="448" y1="80" x2="474" y2="80"/>
  <path class="p5" d="M 474 106 L 500 106 L 500 80 L 474 80 L 474 106"/>
  <line x1="474" y1="80" x2="500" y2="80"/>
  <path class="p5" d="M 500 500 L 526 500 L 526 474 L 500 474 L 500 500"/>
  <path class="p5" d="M 526 500 L 553 500 L 553 474 L 526 474 L 526 500"/>
  <path class="p5" d="M 500 474 L 526 474 L 526 448 L 500 448 L 500 474"/>
  <path class="p5" d="M 526 474 L 553 474 L 553 448 L 526 448 L 526 474"/>
  <path class="p5" d="M 553 500 L 579 500 L 579 474 L 553 474 L 553 500"/>
  <path class="p5" d="M 579 500 L 605 500 L 605 474 L 579 474 L 579 500"/>
  <path class="p5" d="M 553 474 L 579 474 L 579 448 L 553 448 L 553 474"/>
  <path class="p5" d="M 579 474 L 605 474 L 605 448 L 579 448 L 579 474"/>
  <path class="p5" d="M 500 448 L 526 448 L 526 421 L 500 421 L 500 448"/>
  <path class="p5" d="M 526 448 L 553 448 L 553 421 L 526 421 L 526 448"/>
  <path class="p5" d="M 500 421 L 526 421 L 526 395 L 500 395 L 500 421"/>
  <path class="p5" d="M 526 421 L 553 421 L 553 395 L 526 395 L 526 421"/>
  <path class="p5" d="M 553 448 L 579 448 L 579 421 L 553 421 L 553 448"/>
  <path class="p5" d="M 579 448 L 605 448 L 605 421 L 579 421 L 579 448"/>
  <path class="p5" d="M 553 421 L 579 421 L 579 395 L 553 395 L 553 421"/>
  <path class="p5" d="M 579 421 L 605 421 L 605 395 L 579 395 L 579 421"/>
  <path class="p5" d="M 605 500 L 631 500 L 631 474 L 605 474 L 605 500"/>
  <path class="p5" d="M 631 500 L 658 500 L 658 474 L 631 474 L 631 500"/>
  <path class="p5" d="M 605 474 L 631 474 L 631 448 L 605 448 L 605 474"/>
  <path class="p5" d="M 631 474 L 658 474 L 658 448 L 631 448 L 631 474"/>
  <path class="p5" d="M 658 500 L 684 500 L 684 474 L 658 474 L 658 500"/>
  <path class="p5" d="M 684 500 L 710 500 L 710 474 L 684 474 L 684 500"/>
  <path class="p5" d="M 658 474 L 684 474 L 684 448 L 658 448 L 658 474"/>
  <path class="p5" d="M 684 474 L 710 474 L 710 448 L 684 448 L 684 474"/>
  <path class="p5" d="M 605 448 L 631 448 L 631 421 L 605 421 L 605 448"/>
  <path class="p5" d="M 631 448 L 658 448 L 658 421 L 631 421 L 631 448"/>
  <path class="p5" d="M 605 421 L 631 421 L 631 395 L 605 395 L 605 421"/>
  <path class="p5" d="M 631 421 L 658 421 L 658 395 L 631 395 L 631 421"/>
  <path class="p5" d="M 658 448 L 684 448 L 684 421 L 658 421 L 658 448"/>
  <path class="p5" d="M 684 448 L 710 448 L 710 421 L 684 421 L 684 448"/>
  <path class="p5" d="M 658 421 L 684 421 L 684 395 L 658 395 L 658 421"/>
  <path class="p5" d="M 684 421 L 710 421 L 710 395 L 684 395 L 684 421"/>
  <path class="p5" d="M 500 395 L 526 395 L 526 369 L 500 369 L 500 395"/>
  <path class="p5" d="M 526 395 L 553 395 L 553 369 L 526 369 L 526 395"/>
  <path class="p5" d="M 500 369 L 526 369 L 526 343 L 500 343 L 500 369"/>
  <path class="p5" d="M 526 369 L 553 369 L 553 343 L 526 343 L 526 369"/>
  <path class="p5" d="M 553 395 L 579 395 L 579 369 L 553 369 L 553 395"/>
  <path class="p5" d="M 579 395 L 605 395 L 605 369 L 579 369 L 579 395"/>
  <path class="p5" d="M 553 369 L 579 369 L 579 343 L 553 343 L 553 369"/>
  <path class="p5" d="M 579 369 L 605 369 L 605 343 L 579 343 L 579 369"/>
  <path class="p5" d="M 500 343 L 526 343 L 526 316 L 500 316 L 500 343"/>
  <path class="p5" d="M 526 343 L 553 343 L 553 316 L 526 316 L 526 343"/>
  <path class="p5" d="M 500 316 L 526 316 L 526 290 L 500 290 L 500 316"/>
  <path class="p5" d="M 526 316 L 553 316 L 553 290 L 526 290 L 526 316"/>
  <path class="p5" d="M 553 343 L 579 343 L 579 316 L 553 316 L 553 343"/>
  <path class="p5" d="M 579 343 L 605 343 L 605 316 L 579 316 L 579 343"/>
  <path class="p5" d="M 553 316 L 579 316 L 579 290 L 553 290 L 553 316"/>
  <path class="p5" d="M 579 316 L 605 316 L 605 290 L 579 290 L 579 316"/>
  <path class="p5" d="M 605 395 L 631 395 L 631 369 L 605 369 L 605 395"/>
  <path class="p5" d="M 631 395 L 658 395 L 658 369 L 631 369 L 631 395"/>
  <path class="p5" d="M 605 369 L 631 369 L 631 343 L 605 343 L 605 369"/>
  <path class="p5" d="M 631 369 L 658 369 L 658 343 L 631 343 L 631 369"/>
  <path class="p5" d="M 658 395 L 684 395 L 684 369 L 658 369 L 658 395"/>
  <path class="p5" d="M 684 395 L 710 395 L 710 369 L 684 369 L 684 395"/>
  <path class="p5" d="M 658 369 L 684 369 L 684 343 L 658 343 L 658 369"/>
  <path class="p5" d="M 684 369 L 710 369 L 710 343 L 684 343 L 684 369"/>
  <path class="p5" d="M 605 343 L 631 343 L 631 316 L 605 316 L 605 343"/>
  <path class="p5" d="M 631 343 L 658 343 L 658 316 L 631 316 L 631 343"/>
  <path class="p5" d="M 605 316 L 631 316 L 631 290 L 605 290 L 605 316"/>
  <path class="p5" d="M 631 316 L 658 316 L 658 290 L 631 290 L 631 316"/>
  <path class="p5" d="M 658 343 L 684 343 L 684 316 L 658 316 L 658 343"/>
  <path class="p5" d="M 684 343 L 710 343 L 710 316 L 684 316 L 684 343"/>
  <path class="p5" d="M 658 316 L 684 316 L 684 290 L 658 290 L 658 316"/>
  <path class="p5" d="M 684 316 L 710 316 L 710 290 L 684 290 L 684 316"/>
  <path class="p5" d="M 710 500 L 736 500 L 736 474 L 710 474 L 710 500"/>
  <path class="p5" d="M 736 500 L 763 500 L 763 474 L 736 474 L 736 500"/>
  <path class="p5" d="M 710 474 L 736 474 L 736 448 L 710 448 L 710 474"/>
  <path class="p5" d="M 736 474 L 763 474 L 763 448 L 736 448 L 736 474"/>
  <path class="p5" d="M 763 500 L 789 500 L 789 474 L 763 474 L 763 500"/>
  <path class="p5" d="M 789 500 L 815 500 L 815 474 L 789 474 L 789 500"/>
  <path class="p5" d="M 763 474 L 789 474 L 789 448 L 763 448 L 763 474"/>
  <path class="p5" d="M 789 474 L 815 474 L 815 448 L 789 448 L 789 474"/>
  <path class="p5" d="M 710 448 L 736 448 L 736 421 L 710 421 L 710 448"/>
  <path class="p5" d="M 736 448 L 763 448 L 763 421 L 736 421 L 736 448"/>
  <path class="p5" d="M 710 421 L 736 421 L 736 395 L 710 395 L 710 421"/>
  <path class="p5" d="M 736 421 L 763 421 L 763 395 L 736 395 L 736 421"/>
  <path class="p5" d="M 763 448 L 789 448 L 789 421 L 763 421 L 763 448"/>
  <path class="p5" d="M 789 448 L 815 448 L 815 421 L 789 421 L 789 448"/>
  <path class="p5" d="M 763 421 L 789 421 L 789 395 L 763 395 L 763 421"/>
  <path class="p5" d="M 789 421 L 815 421 L 815 395 L 789 395 L 789 421"/>
  <path class="p5" d="M 815 500 L 841 500 L 841 474 L 815 474 L 815 500"/>
  <path class="p5" d="M 841 500 L 868 500 L 868 474 L 841 474 L 841 500"/>
  <path class="p5" d="M 815 474 L 841 474 L 841 448 L 815 448 L 815 474"/>
  <path class="p5" d="M 841 474 L 868 474 L 868 448 L 841 448 L 841 474"/>
  <path class="p5" d="M 868 500 L 894 500 L 894 474 L 868 474 L 868 500"/>
  <path class="p5" d="M 894 500 L 920 500 L 920 474 L 894 474 L 894 500"/>
  <line x1="920" y1="500" x2="920" y2="474"/>
  <path class="p5" d="M 868 474 L 894 474 L 894 448 L 868 448 L 868 474"/>
  <path class="p5" d="M 894 474 L 920 474 L 920 448 L 894 448 L 894 474"/>
  <line x1="920" y1="474" x2="920" y2="448"/>
  <path class="p5" d="M 815 448 L 841 448 L 841 421 L 815 421 L 815 448"/>
  <path class="p5" d="M 841 448 L 868 448 L 868 421 L 841 421 L 841 448"/>
  <path class="p5" d="M 815 421 L 841 421 L 841 395 L 815 395 L 815 421"/>
  <path class="p5" d="M 841 421 L 868 421 L 868 395 L 841 395 L 841 421"/>
  <path class="p5" d="M 868 448 L 894 448 L 894 421 L 868 421 L 868 448"/>
  <path class="p5" d="M 894 448 L 920 448 L 920 421 L 894 421 L 894 448"/>
  <line x1="920" y1="448" x2="920" y2="421"/>
  <path class="p5" d="M 868 421 L 894 421 L 894 395 L 868 395 L 868 421"/>
  <path class="p5" d="M 894 421 L 920 421 L 920 395 L 894 395 L 894 421"/>
  <line x1="920" y1="421" x2="920" y2="395"/>
  <path class="p5" d="M 710 395 L 736 395 L 736 369 L 710 369 L 710 395"/>
  <path class="p5" d="M 736 395 L 763 395 L 763 369 L 736 369 L 736 395"/>
  <path class="p5" d="M 710 369 L 736 369 L 736 343 L 710 343 L 710 369"/>
  <path class="p5" d="M 736 369 L 763 369 L 763 343 L 736 343 L 736 369"/>
  <path class="p5" d="M 763 395 L 789 395 L 789 369 L 763 369 L 763 395"/>
  <path class="p5" d="M 789 395 L 815 395 L 815 369 L 789 369 L 789 395"/>
  <path class="p5" d="M 763 369 L 789 369 L 789 343 L 763 343 L 763 369"/>
  <path class="p5" d="M 789 369 L 815 369 L 815 343 L 789 343 L 789 369"/>
  <path class="p5" d="M 710 343 L 736 343 L 736 316 L 710 316 L 710 343"/>
  <path class="p5" d="M 736 343 L 763 343 L 763 316 L 736 316 L 736 343"/>
  <path class="p5" d="M 710 316 L 736 316 L 736 290 L 710 290 L 710 316"/>
  <path class="p5" d="M 736 316 L 763 316 L 763 290 L 736 290 L 736 316"/>
  <path class="p5" d="M 763 343 L 789 343 L 789 316 L 763 316 L 763 343"/>
  <path class="p5" d="M 789 343 L 815 343 L 815 316 L 789 316 L 789 343"/>
  <path class="p5" d="M 763 316 L 789 316 L 789 290 L 763 290 L 763 316"/>
  <path class="p5" d="M 789 316 L 815 316 L 815 290 L 789 290 L 789 316"/>
  <path class="p5" d="M 815 395 L 841 395 L 841 369 L 815 369 L 815 395"/>
  <path class="p5" d="M 841 395 L 868 395 L 868 369 L 841 369 L 841 395"/>
  <path class="p5" d="M 815 369 L 841 369 L 841 343 L 815 343 L 815 369"/>
  <path class="p5" d="M 841 369 L 868 369 L 868 343 L 841 343 L 841 369"/>
  <path class="p5" d="M 868 395 L 894 395 L 894 369 L 868 369 L 868 395"/>
  <path class="p5" d="M 894 395 L 920 395 L 920 369 L 894 369 L 894 395"/>
  <line x1="920" y1="395" x2="920" y2="369"/>
  <path class="p5" d="M 868 369 L 894 369 L 894 343 L 868 343 L 868 369"/>
  <path class="p5" d="M 894 369 L 920 369 L 920 343 L 894 343 L 894 369"/>
  <line x1="920" y1="369" x2="920" y2="343"/>
  <path class="p5" d="M 815 343 L 841 343 L 841 316 L 815 316 L 815 343"/>
  <path class="p5" d="M 841 343 L 868 343 L 868 316 L 841 316 L 841 343"/>
  <path class="p5" d="M 815 316 L 841 316 L 841 290 L 815 290 L 815 316"/>
  <path class="p5" d="M 841 316 L 868 316 L 868 290 L 841 290 L 841 316"/>
  <path class="p5" d="M 868 343 L 894 343 L 894 316 L 868 316 L 868 343"/>
  <path class="p5" d="M 894 343 L 920 343 L 920 316 L 894 316 L 894 343"/>
  <line x1="920" y1="343" x2="920" y2="316"/>
  <path class="p5" d="M 868 316 L 894 316 L 894 290 L 868 290 L 868 316"/>
  <path class="p5" d="M 894 316 L 920 316 L 920 290 L 894 290 L 894 316"/>
  <line x1="920" y1="316" x2="920" y2="290"/>
  <path class="p5" d="M 500 290 L 526 290 L 526 264 L 500 264 L 500 290"/>
  <path class="p5" d="M 526 290 L 553 290 L 553 264 L 526 264 L 526 290"/>
  <path class="p5" d="M 500 264 L 526 264 L 526 238 L 500 238 L 500 264"/>
  <path class="p5" d="M 526 264 L 553 264 L 553 238 L 526 238 L 526 264"/>
  <path class="p5" d="M 553 290 L 579 290 L 579 264 L 553 264 L 553 290"/>
  <path class="p5" d="M 579 290 L 605 290 L 605 264 L 579 264 L 579 290"/>
  <path class="p5" d="M 553 264 L 579 264 L 579 238 L 553 238 L 553 264"/>
  <path class="p5" d="M 579 264 L 605 264 L 605 238 L 579 238 L 579 264"/>
  <path class="p5" d="M 500 238 L 526 238 L 526 211 L 500 211 L 500 238"/>
  <path class="p5" d="M 526 238 L 553 238 L 553 211 L 526 211 L 526 238"/>
  <path class="p5" d="M 500 211 L 526 211 L 526 185 L 500 185 L 500 211"/>
  <path class="p5" d="M 526 211 L 553 211 L 553 185 L 526 185 L 526 211"/>
  <path class="p5" d="M 553 238 L 579 238 L 579 211 L 553 211 L 553 238"/>
  <path class="p5" d="M 579 238 L 605 238 L 605 211 L 579 211 L 579 238"/>
  <path class="p5" d="M 553 211 L 579 211 L 579 185 L 553 185 L 553 211"/>
  <path class="p5" d="M 579 211 L 605 211 L 605 185 L 579 185 L 579 211"/>
  <path class="p5" d="M 605 290 L 631 290 L 631 264 L 605 264 L 605 290"/>
  <path class="p5" d="M 631 290 L 658 290 L 658 264 L 631 264 L 631 290"/>
  <path class="p5" d="M 605 264 L 631 264 L 631 238 L 605 238 L 605 264"/>
  <path class="p5" d="M 631 264 L 658 264 L 658 238 L 631 238 L 631 264"/>
  <path class="p5" d="M 658 290 L 684 290 L 684 264 L 658 264 L 658 290"/>
  <path class="p5" d="M 684 290 L 710 290 L 710 264 L 684 264 L 684 290"/>
  <path class="p5" d="M 658 264 L 684 264 L 684 238 L 658 238 L 658 264"/>
  <path class="p5" d="M 684 264 L 710 264 L 710 238 L 684 238 L 684 264"/>
  <path class="p5" d="M 605 238 L 631 238 L 631 211 L 605 211 L 605 238"/>
  <path class="p5" d="M 631 238 L 658 238 L 658 211 L 631 211 L 631 238"/>
  <path class="p5" d="M 605 211 L 631 211 L 631 185 L 605 185 L 605 211"/>
  <path class="p5" d="M 631 211 L 658 211 L 658 185 L 631 185 L 631 211"/>
  <path class="p5" d="M 658 238 L 684 238 L 684 211 L 658 211 L 658 238"/>
  <path class="p5" d="M 684 238 L 710 238 L 710 211 L 684 211 L 684 238"/>
  <path class="p5" d="M 658 211 L 684 211 L 684 185 L 658 185 L 658 211"/>
  <path class="p5" d="M 684 211 L 710 211 L 710 185 L 684 185 L 684 211"/>
  <path class="p5" d="M 500 185 L 526 185 L 526 159 L 500 159 L 500 185"/>
  <path class="p5" d="M 526 185 L 553 185 L 553 159 L 526 159 L 526 185"/>
  <path class="p5" d="M 500 159 L 526 159 L 526 133 L 500 133 L 500 159"/>
  <path class="p5" d="M 526 159 L 553 159 L 553 133 L 526 133 L 526 159"/>
  <path class="p5" d="M 553 185 L 579 185 L 579 159 L 553 159 L 553 185"/>
  <path class="p5" d="M 579 185 L 605 185 L 605 159 L 579 159 L 579 185"/>
  <path class="p5" d="M 553 159 L 579 159 L 579 133 L 553 133 L 553 159"/>
  <path class="p5" d="M 579 159 L 605 159 L 605 133 L 579 133 L 579 159"/>
  <path class="p5" d="M 500 133 L 526 133 L 526 106 L 500 106 L 500 133"/>
  <path class="p5" d="M 526 133 L 553 133 L 553 106 L 526 106 L 526 133"/>
  <path class="p5" d="M 500 106 L 526 106 L 526 80 L 500 80 L 500 106"/>
  <line x1="500" y1="80" x2="526" y2="80"/>
  <path class="p5" d="M 526 106 L 553 106 L 553 80 L 526 80 L 526 106"/>
  <line x1="526" y1="80" x2="553" y2="80"/>
  <path class="p5" d="M 553 133 L 579 133 L 579 106 L 553 106 L 553 133"/>
  <path class="p5" d="M 579 133 L 605 133 L 605 106 L 579 106 L 579 133"/>
  <path class="p5" d="M 553 106 L 579 106 L 579 80 L 553 80 L 553 106"/>
  <line x1="553" y1="80" x2="579" y2="80"/>
  <path class="p5" d="M 579 106 L 605 106 L 605 80 L 579 80 L 579 106"/>
  <line x1="579" y1="80" x2="605" y2="80"/>
  <path class="p5" d="M 605 185 L 631 185 L 631 159 L 605 159 L 605 185"/>
  <path class="p5" d="M 631 185 L 658 185 L 658 159 L 631 159 L 631 185"/>
  <path class="p5" d="M 605 159 L 631 159 L 631 133 L 605 133 L 605 159"/>
  <path class="p5" d="M 631 159 L 658 159 L 658 133 L 631 133 L 631 159"/>
  <path class="p5" d="M 658 185 L 684 185 L 684 159 L 658 159 L 658 185"/>
  <path class="p5" d="M 684 185 L 710 185 L 710 159 L 684 159 L 684 185"/>
  <path class="p5" d="M 658 159 L 684 159 L 684 133 L 658 133 L 658 159"/>
  <path class="p5" d="M 684 159 L 710 159 L 710 133 L 684 133 L 684 159"/>
  <path class="p5" d="M 605 133 L 631 133 L 631 106 L 605 106 L 605 133"/>
  <path class="p5" d="M 631 133 L 658 133 L 658 106 L 631 106 L 631 133"/>
  <path class="p5" d="M 605 106 L 631 106 L 631 80 L 605 80 L 605 106"/>
  <line x1="605" y1="80" x2="631" y2="80"/>
  <path class="p5" d="M 631 106 L 658 106 L 658 80 L 631 80 L 631 106"/>
  <line x1="631" y1="80" x2="658" y2="80"/>
  <path class="p5" d="M 658 133 L 684 133 L 684 106 L 658 106 L 658 133"/>
  <path class="p5" d="M 684 133 L 710 133 L 710 106 L 684 106 L 684 133"/>
  <path class="p5" d="M 658 106 L 684 106 L 684 80 L 658 80 L 658 106"/>
  <line x1="658" y1="80" x2="684" y2="80"/>
  <path class="p5" d="M 684 106 L 710 106 L 710 80 L 684 80 L 684 106"/>
  <line x1="684" y1="80" x2="710" y2="80"/>
  <path class="p5" d="M 710 290 L 736 290 L 736 264 L 710 264 L 710 290"/>
  <path class="p5" d="M 736 290 L 763 290 L 763 264 L 736 264 L 736 290"/>
  <path class="p5" d="M 710 264 L 736 264 L 736 238 L 710 238 L 710 264"/>
  <path class="p5" d="M 736 264 L 763 264 L 763 238 L 736 238 L 736 264"/>
  <path class="p5" d="M 763 290 L 789 290 L 789 264 L 763 264 L 763 290"/>
  <path class="p5" d="M 789 290 L 815 290 L 815 264 L 789 264 L 789 290"/>
  <path class="p5" d="M 763 264 L 789 264 L 789 238 L 763 238 L 763 264"/>
  <path class="p5" d="M 789 264 L 815 264 L 815 238 L 789 238 L 789 264"/>
  <path class="p5" d="M 710 238 L 736 238 L 736 211 L 710 211 L 710 238"/>
  <path class="p5" d="M 736 238 L 763 238 L 763 211 L 736 211 L 736 238"/>
  <path class="p5" d="M 710 211 L 736 211 L 736 185 L 710 185 L 710 211"/>
  <path class="p5" d="M 736 211 L 763 211 L 763 185 L 736 185 L 736 211"/>
  <path class="p5" d="M 763 238 L 789 238 L 789 211 L 763 211 L 763 238"/>
  <path class="p5" d="M 789 238 L 815 238 L 815 211 L 789 211 L 789 238"/>
  <path class="p5" d="M 763 211 L 789 211 L 789 185 L 763 185 L 763 211"/>
  <path class="p5" d="M 789 211 L 815 211 L 815 185 L 789 185 L 789 211"/>
  <path class="p5" d="M 815 290 L 841 290 L 841 264 L 815 264 L 815 290"/>
  <path class="p5" d="M 841 290 L 868 290 L 868 264 L 841 264 L 841 290"/>
  <path class="p5" d="M 815 264 L 841 264 L 841 238 L 815 238 L 815 264"/>
  <path class="p5" d="M 841 264 L 868 264 L 868 238 L 841 238 L 841 264"/>
  <path class="p5" d="M 868 290 L 894 290 L 894 264 L 868 264 L 868 290"/>
  <path class="p5" d="M 894 290 L 920 290 L 920 264 L 894 264 L 894 290"/>
  <line x1="920" y1="290" x2="920" y2="264"/>
  <path class="p5" d="M 868 264 L 894 264 L 894 238 L 868 238 L 868 264"/>
  <path class="p5" d="M 894 264 L 920 264 L 920 238 L 894 238 L 894 264"/>
  <line x1="920" y1="264" x2="920" y2="238"/>
  <path class="p5" d="M 815 238 L 841 238 L 841 211 L 815 211 L 815 238"/>
  <path class="p5" d="M 841 238 L 868 238 L 868 211 L 841 211 L 841 238"/>
  <path class="p5" d="M 815 211 L 841 211 L 841 185 L 815 185 L 815 211"/>
  <path class="p5" d="M 841 211 L 868 211 L 868 185 L 841 185 L 841 211"/>
  <path class="p5" d="M 868 238 L 894 238 L 894 211 L 868 211 L 868 238"/>
  <path class="p5" d="M 894 238 L 920 238 L 920 211 L 894 211 L 894 238"/>
  <line x1="920" y1="238" x2="920" y2="211"/>
  <path class="p5" d="M 868 211 L 894 211 L 894 185 L 868 185 L 868 211"/>
  <path class="p5" d="M 894 211 L 920 211 L 920 185 L 894 185 L 894 211"/>
  <line x1="920" y1="211" x2="920" y2="185"/>
  <path class="p5" d="M 710 185 L 736 185 L 736 159 L 710 159 L 710 185"/>
  <path class="p5" d="M 736 185 L 763 185 L 763 159 L 736 159 L 736 185"/>
  <path class="p5" d="M 710 159 L 736 159 L 736 133 L 710 133 L 710 159"/>
  <path class="p5" d="M 736 159 L 763 159 L 763 133 L 736 133 L 736 159"/>
  <path class="p5" d="M 763 185 L 789 185 L 789 159 L 763 159 L 763 185"/>
  <path class="p5" d="M 789 185 L 815 185 L 815 159 L 789 159 L 789 185"/>
  <path class="p5" d="M 763 159 L 789 159 L 789 133 L 763 133 L 763 159"/>
  <path class="p5" d="M 789 159 L 815 159 L 815 133 L 789 133 L 789 159"/>
  <path class="p5" d="M 710 133 L 736 133 L 736 106 L 710 106 L 710 133"/>
  <path class="p5" d="M 736 133 L 763 133 L 763 106 L 736 106 L 736 133"/>
  <path class="p5" d="M 710 106 L 736 106 L 736 80 L 710 80 L 710 106"/>
  <line x1="710" y1="80" x2="736" y2="80"/>
  <path class="p5" d="M 736 106 L 763 106 L 763 80 L 736 80 L 736 106"/>
  <line x1="736" y1="80" x2="763" y2="80"/>
  <path class="p5" d="M 763 133 L 789 133 L 789 106 L 763 106 L 763 133"/>
  <path class="p5" d="M 789 133 L 815 133 L 815 106 L 789 106 L 789 133"/>
  <path class="p5" d="M 763 106 L 789 106 L 789 80 L 763 80 L 763 106"/>
  <line x1="763" y1="80" x2="789" y2="80"/>
  <path class="p5" d="M 789 106 L 815 106 L 815 80 L 789 80 L 789 106"/>
  <line x1="789" y1="80" x2="815" y2="80"/>
  <path class="p5" d="M 815 185 L 841 185 L 841 159 L 815 159 L 815 185"/>
  <path class="p5" d="M 841 185 L 868 185 L 868 159 L 841 159 L 841 185"/>
  <path class="p5" d="M 815 159 L 841 159 L 841 133 L 815 133 L 815 159"/>
  <path class="p5" d="M 841 159 L 868 159 L 868 133 L 841 133 L 841 159"/>
  <path class="p5" d="M 868 185 L 894 185 L 894 159 L 868 159 L 868 185"/>
  <path class="p5" d="M 894 185 L 920 185 L 920 159 L 894 159 L 894 185"/>
  <line x1="920" y1="185" x2="920" y2="159"/>
  <path class="p5" d="M 868 159 L 894 159 L 894 133 L 868 133 L 868 159"/>
  <path class="p5" d="M 894 159 L 920 159 L 920 133 L 894 133 L 894 159"/>
  <line x1="920" y1="159" x2="920" y2="133"/>
  <path class="p5" d="M 815 133 L 841 133 L 841 106 L 815 106 L 815 133"/>
  <path class="p5" d="M 841 133 L 868 133 L 868 106 L 841 106 L 841 133"/>
  <path class="p5" d="M 815 106 L 841 106 L 841 80 L 815 80 L 815 106"/>
  <line x1="815" y1="80" x2="841" y2="80"/>
  <path class="p5" d="M 841 106 L 868 106 L 868 80 L 841 80 L 841 106"/>
  <line x1="841" y1="80" x2="868" y2="80"/>
  <path class="p5" d="M 868 133 L 894 133 L 894 106 L 868 106 L 868 133"/>
  <path class="p5" d="M 894 133 L 920 133 L 920 106 L 894 106 L 894 133"/>
  <line x1="920" y1="133" x2="920" y2="106"/>
  <path class="p5" d="M 868 106 L 894 106 L 894 80 L 868 80 L 868 106"/>
  <line x1="868" y1="80" x2="894" y2="80"/>
  <path class="p5" d="M 894 106 L 920 106 L 920 80 L 894 80 L 894 106"/>
  <line x1="920" y1="106" x2="920" y2="80"/>
  <line x1="894" y1="80" x2="920" y2="80"/>

</svg>